<svg width="437" height="308" viewBox="0 0 437 308" fill="none" xmlns="http://www.w3.org/2000/svg">
<path d="M0 40C0 17.9086 17.9086 0 40 0H397C419.091 0 437 17.9086 437 40V308H0V40Z" fill="#606060"/>
<path d="M4 45C4 22.9086 21.9086 5 44 5H393C415.091 5 433 22.9086 433 45V308H4V45Z" fill="black"/>
<g clip-path="url(#clip0_419_23)">
<path d="M12 54C12 31.9086 29.9086 14 52 14H384C406.091 14 424 31.9086 424 54V308H12V54Z" fill="white"/>
<path d="M165.083 82.35H163.793C163.763 80.95 162.868 80.25 161.108 80.25C160.388 80.25 159.808 80.415 159.368 80.745C158.928 81.065 158.708 81.49 158.708 82.02C158.708 82.42 158.838 82.74 159.098 82.98C159.368 83.21 159.828 83.41 160.478 83.58L163.028 84.24C164.648 84.67 165.458 85.57 165.458 86.94C165.458 87.93 165.063 88.735 164.273 89.355C163.573 89.895 162.568 90.165 161.258 90.165C159.598 90.165 158.393 89.665 157.643 88.665C157.243 88.125 157.033 87.4 157.013 86.49H158.303V86.52C158.303 87.3 158.568 87.905 159.098 88.335C159.638 88.755 160.388 88.965 161.348 88.965C162.228 88.965 162.883 88.82 163.313 88.53C163.823 88.18 164.078 87.69 164.078 87.06C164.078 86.26 163.423 85.695 162.113 85.365L159.443 84.675C158.043 84.315 157.343 83.49 157.343 82.2C157.343 81.18 157.728 80.39 158.498 79.83C159.168 79.34 160.053 79.095 161.153 79.095C162.713 79.095 163.828 79.55 164.498 80.46C164.888 80.99 165.083 81.565 165.083 82.185C165.083 82.215 165.083 82.27 165.083 82.35ZM173.067 84.87H171.837C171.687 83.79 171.077 83.25 170.007 83.25C169.337 83.25 168.812 83.515 168.432 84.045C168.052 84.575 167.862 85.31 167.862 86.25C167.862 87.18 168.087 87.89 168.537 88.38C168.917 88.81 169.427 89.025 170.067 89.025C171.097 89.025 171.712 88.465 171.912 87.345H173.157C173.077 88.305 172.732 89.03 172.122 89.52C171.592 89.95 170.897 90.165 170.037 90.165C168.907 90.165 168.027 89.765 167.397 88.965C166.857 88.275 166.587 87.37 166.587 86.25C166.587 84.91 166.942 83.86 167.652 83.1C168.262 82.45 169.052 82.125 170.022 82.125C171.142 82.125 171.982 82.5 172.542 83.25C172.832 83.64 173.007 84.18 173.067 84.87ZM174.525 82.29H175.665V83.7C176.115 82.64 176.825 82.11 177.795 82.11C177.915 82.11 178.06 82.125 178.23 82.155V83.415C177.43 83.425 176.88 83.54 176.58 83.76C176.03 84.16 175.755 84.905 175.755 85.995V90H174.525V82.29ZM185.958 86.505H180.273C180.283 87.165 180.423 87.69 180.693 88.08C181.123 88.71 181.743 89.025 182.553 89.025C183.553 89.025 184.228 88.55 184.578 87.6H185.808C185.648 88.41 185.278 89.04 184.698 89.49C184.118 89.94 183.388 90.165 182.508 90.165C181.338 90.165 180.443 89.765 179.823 88.965C179.273 88.265 178.998 87.34 178.998 86.19C178.998 84.86 179.358 83.825 180.078 83.085C180.708 82.445 181.523 82.125 182.523 82.125C183.253 82.125 183.893 82.3 184.443 82.65C185.003 83 185.403 83.48 185.643 84.09C185.853 84.61 185.958 85.4 185.958 86.46V86.505ZM184.638 85.5C184.638 84.83 184.438 84.29 184.038 83.88C183.648 83.46 183.143 83.25 182.523 83.25C181.893 83.25 181.378 83.455 180.978 83.865C180.588 84.265 180.368 84.81 180.318 85.5H184.638ZM194.146 86.505H188.461C188.471 87.165 188.611 87.69 188.881 88.08C189.311 88.71 189.931 89.025 190.741 89.025C191.741 89.025 192.416 88.55 192.766 87.6H193.996C193.836 88.41 193.466 89.04 192.886 89.49C192.306 89.94 191.576 90.165 190.696 90.165C189.526 90.165 188.631 89.765 188.011 88.965C187.461 88.265 187.186 87.34 187.186 86.19C187.186 84.86 187.546 83.825 188.266 83.085C188.896 82.445 189.711 82.125 190.711 82.125C191.441 82.125 192.081 82.3 192.631 82.65C193.191 83 193.591 83.48 193.831 84.09C194.041 84.61 194.146 85.4 194.146 86.46V86.505ZM192.826 85.5C192.826 84.83 192.626 84.29 192.226 83.88C191.836 83.46 191.331 83.25 190.711 83.25C190.081 83.25 189.566 83.455 189.166 83.865C188.776 84.265 188.556 84.81 188.506 85.5H192.826ZM195.825 82.29H196.965V83.595C197.585 82.615 198.435 82.125 199.515 82.125C200.265 82.125 200.86 82.315 201.3 82.695C201.74 83.065 201.96 83.565 201.96 84.195V90H200.745V84.69C200.745 84.23 200.6 83.865 200.31 83.595C200.03 83.325 199.645 83.19 199.155 83.19C198.515 83.19 198.005 83.425 197.625 83.895C197.245 84.365 197.055 84.99 197.055 85.77V90H195.825V82.29ZM205.168 82.29V90H203.953V82.29H205.168ZM204.583 79.275C204.793 79.275 204.968 79.35 205.108 79.5C205.258 79.64 205.333 79.81 205.333 80.01C205.333 80.22 205.258 80.4 205.108 80.55C204.968 80.69 204.793 80.76 204.583 80.76C204.383 80.76 204.208 80.69 204.058 80.55C203.918 80.4 203.848 80.22 203.848 80.01C203.848 79.81 203.918 79.64 204.058 79.5C204.208 79.35 204.383 79.275 204.583 79.275ZM207.28 82.29H208.42V83.595C209.04 82.615 209.89 82.125 210.97 82.125C211.72 82.125 212.315 82.315 212.755 82.695C213.195 83.065 213.415 83.565 213.415 84.195V90H212.2V84.69C212.2 84.23 212.055 83.865 211.765 83.595C211.485 83.325 211.1 83.19 210.61 83.19C209.97 83.19 209.46 83.425 209.08 83.895C208.7 84.365 208.51 84.99 208.51 85.77V90H207.28V82.29ZM220.493 82.29H221.633V88.74C221.633 90.41 221.363 91.57 220.823 92.22C220.283 92.88 219.398 93.21 218.168 93.21C217.208 93.21 216.458 92.98 215.918 92.52C215.438 92.11 215.168 91.565 215.108 90.885H216.368C216.428 91.285 216.578 91.58 216.818 91.77C217.168 92.04 217.638 92.175 218.228 92.175C219.028 92.175 219.598 91.935 219.938 91.455C220.228 91.045 220.373 90.345 220.373 89.355V88.86C219.733 89.73 218.963 90.165 218.063 90.165C217.183 90.165 216.438 89.835 215.828 89.175C215.178 88.465 214.853 87.495 214.853 86.265C214.853 84.945 215.193 83.895 215.873 83.115C216.473 82.455 217.228 82.125 218.138 82.125C219.118 82.125 219.903 82.565 220.493 83.445V82.29ZM218.273 83.25C217.613 83.25 217.088 83.515 216.698 84.045C216.318 84.565 216.128 85.28 216.128 86.19C216.128 87.14 216.348 87.865 216.788 88.365C217.158 88.805 217.658 89.025 218.288 89.025C218.948 89.025 219.458 88.775 219.818 88.275C220.188 87.775 220.373 87.08 220.373 86.19C220.373 85.21 220.163 84.46 219.743 83.94C219.373 83.48 218.883 83.25 218.273 83.25ZM232.305 84.87H231.075C230.925 83.79 230.315 83.25 229.245 83.25C228.575 83.25 228.05 83.515 227.67 84.045C227.29 84.575 227.1 85.31 227.1 86.25C227.1 87.18 227.325 87.89 227.775 88.38C228.155 88.81 228.665 89.025 229.305 89.025C230.335 89.025 230.95 88.465 231.15 87.345H232.395C232.315 88.305 231.97 89.03 231.36 89.52C230.83 89.95 230.135 90.165 229.275 90.165C228.145 90.165 227.265 89.765 226.635 88.965C226.095 88.275 225.825 87.37 225.825 86.25C225.825 84.91 226.18 83.86 226.89 83.1C227.5 82.45 228.29 82.125 229.26 82.125C230.38 82.125 231.22 82.5 231.78 83.25C232.07 83.64 232.245 84.18 232.305 84.87ZM240.619 88.965V89.955C240.279 90.075 240.014 90.135 239.824 90.135C239.024 90.135 238.589 89.77 238.519 89.04C237.969 89.79 237.094 90.165 235.894 90.165C235.064 90.165 234.419 89.935 233.959 89.475C233.559 89.075 233.359 88.56 233.359 87.93C233.359 87.21 233.614 86.655 234.124 86.265C234.414 86.045 235.019 85.83 235.939 85.62L238.459 85.05L238.474 84.405C238.474 83.635 237.894 83.25 236.734 83.25C235.624 83.25 235.029 83.7 234.949 84.6H233.704C233.734 83.92 233.904 83.4 234.214 83.04C234.744 82.43 235.604 82.125 236.794 82.125C238.724 82.125 239.689 82.825 239.689 84.225V88.53C239.689 88.91 239.854 89.1 240.184 89.1C240.224 89.1 240.329 89.07 240.499 89.01C240.559 88.99 240.599 88.975 240.619 88.965ZM238.474 86.055L236.494 86.565C235.784 86.745 235.294 86.93 235.024 87.12C234.764 87.31 234.634 87.575 234.634 87.915C234.634 88.705 235.144 89.1 236.164 89.1C236.884 89.1 237.494 88.865 237.994 88.395C238.314 88.105 238.474 87.775 238.474 87.405V86.055ZM243.167 79.26V90H241.937V79.26H243.167ZM246.434 79.26V90H245.204V79.26H246.434ZM254.014 82.29V83.28H252.739V90H251.524V83.28H250.489V82.29H251.524V80.97C251.524 80.42 251.679 79.99 251.989 79.68C252.309 79.37 252.754 79.215 253.324 79.215C253.544 79.215 253.774 79.24 254.014 79.29V80.31H253.879C253.769 80.3 253.674 80.295 253.594 80.295C253.024 80.295 252.739 80.555 252.739 81.075V82.29H254.014ZM255.341 82.29H256.481V83.7C256.931 82.64 257.641 82.11 258.611 82.11C258.731 82.11 258.876 82.125 259.046 82.155V83.415C258.246 83.425 257.696 83.54 257.396 83.76C256.846 84.16 256.571 84.905 256.571 85.995V90H255.341V82.29ZM263.278 82.125C264.438 82.125 265.323 82.53 265.933 83.34C266.473 84.04 266.743 84.99 266.743 86.19C266.743 87.53 266.393 88.55 265.693 89.25C265.093 89.86 264.283 90.165 263.263 90.165C262.083 90.165 261.183 89.77 260.563 88.98C260.023 88.29 259.753 87.36 259.753 86.19C259.753 84.83 260.108 83.785 260.818 83.055C261.428 82.435 262.248 82.125 263.278 82.125ZM263.278 83.25C262.578 83.25 262.028 83.515 261.628 84.045C261.228 84.565 261.028 85.28 261.028 86.19C261.028 87.14 261.253 87.865 261.703 88.365C262.093 88.805 262.613 89.025 263.263 89.025C263.953 89.025 264.488 88.775 264.868 88.275C265.258 87.775 265.453 87.08 265.453 86.19C265.453 85.21 265.233 84.46 264.793 83.94C264.413 83.48 263.908 83.25 263.278 83.25ZM268.452 82.29H269.592V83.4C270.192 82.55 270.982 82.125 271.962 82.125C272.912 82.125 273.602 82.505 274.032 83.265C274.402 82.835 274.757 82.54 275.097 82.38C275.447 82.21 275.877 82.125 276.387 82.125C277.887 82.125 278.637 82.83 278.637 84.24V90H277.407V84.72C277.407 83.7 276.927 83.19 275.967 83.19C275.467 83.19 275.042 83.385 274.692 83.775C274.342 84.165 274.167 84.63 274.167 85.17V90H272.937V84.72C272.937 83.7 272.462 83.19 271.512 83.19C271.002 83.19 270.567 83.385 270.207 83.775C269.857 84.155 269.682 84.62 269.682 85.17V90H268.452V82.29Z" fill="#505050"/>
<path d="M119.753 124.108H125.681V118.18H127.709V124.108H133.637V126.136H127.709V132.064H125.681V126.136H119.753V124.108ZM142.374 117.452L138.994 120.572L137.538 118.83L142.66 114.592H144.87V133H142.374V117.452ZM160.859 128.502C161.154 129.386 161.544 130.045 162.029 130.478C162.532 130.911 163.268 131.128 164.239 131.128C164.724 131.128 165.175 131.05 165.591 130.894C166.024 130.721 166.406 130.495 166.735 130.218C167.064 129.923 167.324 129.577 167.515 129.178C167.706 128.762 167.801 128.303 167.801 127.8C167.801 127.037 167.636 126.431 167.307 125.98C166.995 125.512 166.588 125.165 166.085 124.94C165.582 124.697 165.028 124.541 164.421 124.472C163.814 124.403 163.216 124.368 162.627 124.368V122.184C163.58 122.184 164.36 122.123 164.967 122.002C165.574 121.863 166.05 121.673 166.397 121.43C166.744 121.187 166.986 120.884 167.125 120.52C167.264 120.156 167.333 119.749 167.333 119.298C167.333 118.31 167.038 117.565 166.449 117.062C165.86 116.559 165.123 116.308 164.239 116.308C163.563 116.308 162.948 116.507 162.393 116.906C161.856 117.287 161.448 117.799 161.171 118.44L158.623 117.582C159.108 116.403 159.845 115.537 160.833 114.982C161.838 114.41 162.956 114.124 164.187 114.124C164.932 114.124 165.643 114.228 166.319 114.436C167.012 114.627 167.619 114.93 168.139 115.346C168.659 115.762 169.066 116.291 169.361 116.932C169.673 117.556 169.829 118.293 169.829 119.142C169.829 120.113 169.534 120.979 168.945 121.742C168.373 122.505 167.619 123.025 166.683 123.302V123.354C167.255 123.458 167.766 123.649 168.217 123.926C168.668 124.203 169.049 124.55 169.361 124.966C169.673 125.382 169.907 125.85 170.063 126.37C170.219 126.873 170.297 127.41 170.297 127.982C170.297 128.866 170.124 129.646 169.777 130.322C169.448 130.981 168.997 131.535 168.425 131.986C167.87 132.419 167.22 132.749 166.475 132.974C165.747 133.199 164.976 133.312 164.161 133.312C162.757 133.312 161.518 132.991 160.443 132.35C159.386 131.709 158.649 130.695 158.233 129.308L160.859 128.502ZM172.368 123.796C172.368 123.12 172.403 122.418 172.472 121.69C172.542 120.962 172.663 120.251 172.836 119.558C173.027 118.847 173.27 118.171 173.564 117.53C173.876 116.889 174.266 116.334 174.734 115.866C175.22 115.381 175.783 114.999 176.424 114.722C177.083 114.427 177.846 114.28 178.712 114.28C179.579 114.28 180.333 114.427 180.974 114.722C181.633 114.999 182.196 115.381 182.664 115.866C183.15 116.334 183.54 116.889 183.834 117.53C184.146 118.171 184.389 118.847 184.562 119.558C184.753 120.251 184.883 120.962 184.952 121.69C185.022 122.418 185.056 123.12 185.056 123.796C185.056 124.767 184.97 125.807 184.796 126.916C184.623 128.025 184.302 129.057 183.834 130.01C183.366 130.963 182.716 131.752 181.884 132.376C181.07 133 180.012 133.312 178.712 133.312C177.412 133.312 176.346 133 175.514 132.376C174.7 131.752 174.058 130.963 173.59 130.01C173.122 129.057 172.802 128.025 172.628 126.916C172.455 125.807 172.368 124.767 172.368 123.796ZM174.864 123.796C174.864 124.403 174.899 125.122 174.968 125.954C175.055 126.786 175.228 127.592 175.488 128.372C175.748 129.135 176.13 129.785 176.632 130.322C177.152 130.859 177.846 131.128 178.712 131.128C179.579 131.128 180.264 130.859 180.766 130.322C181.286 129.785 181.676 129.135 181.936 128.372C182.196 127.592 182.361 126.786 182.43 125.954C182.517 125.122 182.56 124.403 182.56 123.796C182.56 123.38 182.543 122.912 182.508 122.392C182.491 121.855 182.43 121.317 182.326 120.78C182.24 120.225 182.11 119.697 181.936 119.194C181.763 118.674 181.529 118.215 181.234 117.816C180.957 117.4 180.61 117.071 180.194 116.828C179.778 116.585 179.284 116.464 178.712 116.464C178.14 116.464 177.646 116.585 177.23 116.828C176.814 117.071 176.459 117.4 176.164 117.816C175.887 118.215 175.662 118.674 175.488 119.194C175.315 119.697 175.176 120.225 175.072 120.78C174.986 121.317 174.925 121.855 174.89 122.392C174.873 122.912 174.864 123.38 174.864 123.796ZM192.952 117.452L189.572 120.572L188.116 118.83L193.238 114.592H195.448V133H192.952V117.452ZM207.685 127.8H201.289V125.616H207.685V127.8ZM209.801 130.348L217.185 123.016C217.445 122.773 217.697 122.513 217.939 122.236C218.182 121.941 218.399 121.638 218.589 121.326C218.78 121.014 218.927 120.685 219.031 120.338C219.153 119.991 219.213 119.627 219.213 119.246C219.213 118.795 219.127 118.388 218.953 118.024C218.797 117.66 218.572 117.357 218.277 117.114C218 116.854 217.662 116.655 217.263 116.516C216.882 116.377 216.475 116.308 216.041 116.308C215.14 116.308 214.395 116.559 213.805 117.062C213.216 117.565 212.843 118.258 212.687 119.142L209.983 118.908C210.105 118.093 210.339 117.391 210.685 116.802C211.049 116.195 211.491 115.693 212.011 115.294C212.549 114.895 213.155 114.601 213.831 114.41C214.525 114.219 215.27 114.124 216.067 114.124C216.865 114.124 217.61 114.237 218.303 114.462C219.014 114.67 219.629 114.991 220.149 115.424C220.687 115.84 221.103 116.369 221.397 117.01C221.709 117.634 221.865 118.371 221.865 119.22C221.865 119.827 221.77 120.399 221.579 120.936C221.406 121.456 221.172 121.95 220.877 122.418C220.583 122.886 220.245 123.328 219.863 123.744C219.482 124.16 219.083 124.567 218.667 124.966L212.609 130.816H221.865V133H209.801V130.348ZM228.773 121.716H228.877C229.449 121.439 230.125 121.3 230.905 121.3C231.563 121.3 232.231 121.413 232.907 121.638C233.583 121.863 234.189 122.219 234.727 122.704C235.281 123.172 235.732 123.779 236.079 124.524C236.425 125.252 236.599 126.119 236.599 127.124C236.599 128.147 236.425 129.048 236.079 129.828C235.749 130.591 235.299 131.232 234.727 131.752C234.155 132.272 233.487 132.662 232.725 132.922C231.962 133.182 231.147 133.312 230.281 133.312C229.414 133.312 228.599 133.173 227.837 132.896C227.074 132.619 226.407 132.22 225.835 131.7C225.263 131.18 224.803 130.556 224.457 129.828C224.127 129.1 223.963 128.285 223.963 127.384C223.963 126.812 224.006 126.292 224.093 125.824C224.179 125.356 224.301 124.914 224.457 124.498C224.63 124.065 224.829 123.649 225.055 123.25C225.28 122.834 225.531 122.401 225.809 121.95L230.463 114.592H233.401L228.773 121.716ZM226.459 127.306C226.459 127.861 226.545 128.372 226.719 128.84C226.909 129.308 227.169 129.715 227.499 130.062C227.845 130.391 228.253 130.651 228.721 130.842C229.189 131.033 229.709 131.128 230.281 131.128C230.853 131.128 231.373 131.033 231.841 130.842C232.309 130.651 232.707 130.391 233.037 130.062C233.383 129.715 233.643 129.308 233.817 128.84C234.007 128.372 234.103 127.861 234.103 127.306C234.103 126.751 234.007 126.24 233.817 125.772C233.643 125.304 233.383 124.905 233.037 124.576C232.707 124.229 232.309 123.961 231.841 123.77C231.373 123.579 230.853 123.484 230.281 123.484C229.709 123.484 229.189 123.579 228.721 123.77C228.253 123.961 227.845 124.229 227.499 124.576C227.169 124.905 226.909 125.304 226.719 125.772C226.545 126.24 226.459 126.751 226.459 127.306ZM246.236 128.944H238.384V126.396L245.716 114.592H248.732V126.76H251.332V128.944H248.732V133H246.236V128.944ZM246.236 117.556H246.184L240.568 126.76H246.236V117.556ZM259.253 127.8H252.857V125.616H259.253V127.8ZM261.37 130.348L268.754 123.016C269.014 122.773 269.265 122.513 269.508 122.236C269.75 121.941 269.967 121.638 270.158 121.326C270.348 121.014 270.496 120.685 270.6 120.338C270.721 119.991 270.782 119.627 270.782 119.246C270.782 118.795 270.695 118.388 270.522 118.024C270.366 117.66 270.14 117.357 269.846 117.114C269.568 116.854 269.23 116.655 268.832 116.516C268.45 116.377 268.043 116.308 267.61 116.308C266.708 116.308 265.963 116.559 265.374 117.062C264.784 117.565 264.412 118.258 264.256 119.142L261.552 118.908C261.673 118.093 261.907 117.391 262.254 116.802C262.618 116.195 263.06 115.693 263.58 115.294C264.117 114.895 264.724 114.601 265.4 114.41C266.093 114.219 266.838 114.124 267.636 114.124C268.433 114.124 269.178 114.237 269.872 114.462C270.582 114.67 271.198 114.991 271.718 115.424C272.255 115.84 272.671 116.369 272.966 117.01C273.278 117.634 273.434 118.371 273.434 119.22C273.434 119.827 273.338 120.399 273.148 120.936C272.974 121.456 272.74 121.95 272.446 122.418C272.151 122.886 271.813 123.328 271.432 123.744C271.05 124.16 270.652 124.567 270.236 124.966L264.178 130.816H273.434V133H261.37V130.348ZM275.505 123.796C275.505 123.12 275.54 122.418 275.609 121.69C275.678 120.962 275.8 120.251 275.973 119.558C276.164 118.847 276.406 118.171 276.701 117.53C277.013 116.889 277.403 116.334 277.871 115.866C278.356 115.381 278.92 114.999 279.561 114.722C280.22 114.427 280.982 114.28 281.849 114.28C282.716 114.28 283.47 114.427 284.111 114.722C284.77 114.999 285.333 115.381 285.801 115.866C286.286 116.334 286.676 116.889 286.971 117.53C287.283 118.171 287.526 118.847 287.699 119.558C287.89 120.251 288.02 120.962 288.089 121.69C288.158 122.418 288.193 123.12 288.193 123.796C288.193 124.767 288.106 125.807 287.933 126.916C287.76 128.025 287.439 129.057 286.971 130.01C286.503 130.963 285.853 131.752 285.021 132.376C284.206 133 283.149 133.312 281.849 133.312C280.549 133.312 279.483 133 278.651 132.376C277.836 131.752 277.195 130.963 276.727 130.01C276.259 129.057 275.938 128.025 275.765 126.916C275.592 125.807 275.505 124.767 275.505 123.796ZM278.001 123.796C278.001 124.403 278.036 125.122 278.105 125.954C278.192 126.786 278.365 127.592 278.625 128.372C278.885 129.135 279.266 129.785 279.769 130.322C280.289 130.859 280.982 131.128 281.849 131.128C282.716 131.128 283.4 130.859 283.903 130.322C284.423 129.785 284.813 129.135 285.073 128.372C285.333 127.592 285.498 126.786 285.567 125.954C285.654 125.122 285.697 124.403 285.697 123.796C285.697 123.38 285.68 122.912 285.645 122.392C285.628 121.855 285.567 121.317 285.463 120.78C285.376 120.225 285.246 119.697 285.073 119.194C284.9 118.674 284.666 118.215 284.371 117.816C284.094 117.4 283.747 117.071 283.331 116.828C282.915 116.585 282.421 116.464 281.849 116.464C281.277 116.464 280.783 116.585 280.367 116.828C279.951 117.071 279.596 117.4 279.301 117.816C279.024 118.215 278.798 118.674 278.625 119.194C278.452 119.697 278.313 120.225 278.209 120.78C278.122 121.317 278.062 121.855 278.027 122.392C278.01 122.912 278.001 123.38 278.001 123.796ZM290.264 130.348L297.648 123.016C297.908 122.773 298.16 122.513 298.402 122.236C298.645 121.941 298.862 121.638 299.052 121.326C299.243 121.014 299.39 120.685 299.494 120.338C299.616 119.991 299.676 119.627 299.676 119.246C299.676 118.795 299.59 118.388 299.416 118.024C299.26 117.66 299.035 117.357 298.74 117.114C298.463 116.854 298.125 116.655 297.726 116.516C297.345 116.377 296.938 116.308 296.504 116.308C295.603 116.308 294.858 116.559 294.268 117.062C293.679 117.565 293.306 118.258 293.15 119.142L290.446 118.908C290.568 118.093 290.802 117.391 291.148 116.802C291.512 116.195 291.954 115.693 292.474 115.294C293.012 114.895 293.618 114.601 294.294 114.41C294.988 114.219 295.733 114.124 296.53 114.124C297.328 114.124 298.073 114.237 298.766 114.462C299.477 114.67 300.092 114.991 300.612 115.424C301.15 115.84 301.566 116.369 301.86 117.01C302.172 117.634 302.328 118.371 302.328 119.22C302.328 119.827 302.233 120.399 302.042 120.936C301.869 121.456 301.635 121.95 301.34 122.418C301.046 122.886 300.708 123.328 300.326 123.744C299.945 124.16 299.546 124.567 299.13 124.966L293.072 130.816H302.328V133H290.264V130.348ZM312.252 125.876H312.148C311.576 126.153 310.9 126.292 310.12 126.292C309.461 126.292 308.794 126.179 308.118 125.954C307.442 125.729 306.826 125.382 306.272 124.914C305.734 124.429 305.292 123.822 304.946 123.094C304.599 122.349 304.426 121.473 304.426 120.468C304.426 119.463 304.59 118.579 304.92 117.816C305.266 117.036 305.726 116.386 306.298 115.866C306.87 115.346 307.537 114.956 308.3 114.696C309.062 114.419 309.877 114.28 310.744 114.28C311.61 114.28 312.425 114.419 313.188 114.696C313.95 114.973 314.618 115.372 315.19 115.892C315.762 116.412 316.212 117.036 316.542 117.764C316.888 118.492 317.062 119.307 317.062 120.208C317.062 120.78 317.018 121.3 316.932 121.768C316.845 122.236 316.715 122.687 316.542 123.12C316.386 123.536 316.195 123.952 315.97 124.368C315.744 124.784 315.493 125.209 315.216 125.642L310.562 133H307.624L312.252 125.876ZM314.566 120.286C314.566 119.731 314.47 119.22 314.28 118.752C314.106 118.284 313.846 117.885 313.5 117.556C313.17 117.209 312.772 116.941 312.304 116.75C311.836 116.559 311.316 116.464 310.744 116.464C310.172 116.464 309.652 116.559 309.184 116.75C308.716 116.941 308.308 117.209 307.962 117.556C307.632 117.885 307.372 118.284 307.182 118.752C307.008 119.22 306.922 119.731 306.922 120.286C306.922 120.841 307.008 121.352 307.182 121.82C307.372 122.288 307.632 122.695 307.962 123.042C308.308 123.371 308.716 123.631 309.184 123.822C309.652 124.013 310.172 124.108 310.744 124.108C311.316 124.108 311.836 124.013 312.304 123.822C312.772 123.631 313.17 123.371 313.5 123.042C313.846 122.695 314.106 122.288 314.28 121.82C314.47 121.352 314.566 120.841 314.566 120.286Z" fill="black"/>
<path d="M199.753 162.69C199.753 162.3 199.773 161.895 199.813 161.475C199.853 161.055 199.923 160.645 200.023 160.245C200.133 159.835 200.273 159.445 200.443 159.075C200.623 158.705 200.848 158.385 201.118 158.115C201.398 157.835 201.723 157.615 202.093 157.455C202.473 157.285 202.913 157.2 203.413 157.2C203.913 157.2 204.348 157.285 204.718 157.455C205.098 157.615 205.423 157.835 205.693 158.115C205.973 158.385 206.198 158.705 206.368 159.075C206.548 159.445 206.688 159.835 206.788 160.245C206.898 160.645 206.973 161.055 207.013 161.475C207.053 161.895 207.073 162.3 207.073 162.69C207.073 163.25 207.023 163.85 206.923 164.49C206.823 165.13 206.638 165.725 206.368 166.275C206.098 166.825 205.723 167.28 205.243 167.64C204.773 168 204.163 168.18 203.413 168.18C202.663 168.18 202.048 168 201.568 167.64C201.098 167.28 200.728 166.825 200.458 166.275C200.188 165.725 200.003 165.13 199.903 164.49C199.803 163.85 199.753 163.25 199.753 162.69ZM201.193 162.69C201.193 163.04 201.213 163.455 201.253 163.935C201.303 164.415 201.403 164.88 201.553 165.33C201.703 165.77 201.923 166.145 202.213 166.455C202.513 166.765 202.913 166.92 203.413 166.92C203.913 166.92 204.308 166.765 204.598 166.455C204.898 166.145 205.123 165.77 205.273 165.33C205.423 164.88 205.518 164.415 205.558 163.935C205.608 163.455 205.633 163.04 205.633 162.69C205.633 162.45 205.623 162.18 205.603 161.88C205.593 161.57 205.558 161.26 205.498 160.95C205.448 160.63 205.373 160.325 205.273 160.035C205.173 159.735 205.038 159.47 204.868 159.24C204.708 159 204.508 158.81 204.268 158.67C204.028 158.53 203.743 158.46 203.413 158.46C203.083 158.46 202.798 158.53 202.558 158.67C202.318 158.81 202.113 159 201.943 159.24C201.783 159.47 201.653 159.735 201.553 160.035C201.453 160.325 201.373 160.63 201.313 160.95C201.263 161.26 201.228 161.57 201.208 161.88C201.198 162.18 201.193 162.45 201.193 162.69ZM208.088 162.69C208.088 162.3 208.108 161.895 208.148 161.475C208.188 161.055 208.258 160.645 208.358 160.245C208.468 159.835 208.608 159.445 208.778 159.075C208.958 158.705 209.183 158.385 209.453 158.115C209.733 157.835 210.058 157.615 210.428 157.455C210.808 157.285 211.248 157.2 211.748 157.2C212.248 157.2 212.683 157.285 213.053 157.455C213.433 157.615 213.758 157.835 214.028 158.115C214.308 158.385 214.533 158.705 214.703 159.075C214.883 159.445 215.023 159.835 215.123 160.245C215.233 160.645 215.308 161.055 215.348 161.475C215.388 161.895 215.408 162.3 215.408 162.69C215.408 163.25 215.358 163.85 215.258 164.49C215.158 165.13 214.973 165.725 214.703 166.275C214.433 166.825 214.058 167.28 213.578 167.64C213.108 168 212.498 168.18 211.748 168.18C210.998 168.18 210.383 168 209.903 167.64C209.433 167.28 209.063 166.825 208.793 166.275C208.523 165.725 208.338 165.13 208.238 164.49C208.138 163.85 208.088 163.25 208.088 162.69ZM209.528 162.69C209.528 163.04 209.548 163.455 209.588 163.935C209.638 164.415 209.738 164.88 209.888 165.33C210.038 165.77 210.258 166.145 210.548 166.455C210.848 166.765 211.248 166.92 211.748 166.92C212.248 166.92 212.643 166.765 212.933 166.455C213.233 166.145 213.458 165.77 213.608 165.33C213.758 164.88 213.853 164.415 213.893 163.935C213.943 163.455 213.968 163.04 213.968 162.69C213.968 162.45 213.958 162.18 213.938 161.88C213.928 161.57 213.893 161.26 213.833 160.95C213.783 160.63 213.708 160.325 213.608 160.035C213.508 159.735 213.373 159.47 213.203 159.24C213.043 159 212.843 158.81 212.603 158.67C212.363 158.53 212.078 158.46 211.748 158.46C211.418 158.46 211.133 158.53 210.893 158.67C210.653 158.81 210.448 159 210.278 159.24C210.118 159.47 209.988 159.735 209.888 160.035C209.788 160.325 209.708 160.63 209.648 160.95C209.598 161.26 209.563 161.57 209.543 161.88C209.533 162.18 209.528 162.45 209.528 162.69ZM217.998 162.78C217.728 162.78 217.493 162.685 217.293 162.495C217.103 162.295 217.008 162.06 217.008 161.79C217.008 161.52 217.103 161.29 217.293 161.1C217.493 160.9 217.728 160.8 217.998 160.8C218.268 160.8 218.498 160.9 218.688 161.1C218.888 161.29 218.988 161.52 218.988 161.79C218.988 162.06 218.888 162.295 218.688 162.495C218.498 162.685 218.268 162.78 217.998 162.78ZM217.008 167.1C217.008 166.83 217.103 166.6 217.293 166.41C217.493 166.21 217.728 166.11 217.998 166.11C218.268 166.11 218.498 166.21 218.688 166.41C218.888 166.6 218.988 166.83 218.988 167.1C218.988 167.37 218.888 167.605 218.688 167.805C218.498 167.995 218.268 168.09 217.998 168.09C217.728 168.09 217.493 167.995 217.293 167.805C217.103 167.605 217.008 167.37 217.008 167.1ZM225.127 165.66H220.597V164.19L224.827 157.38H226.567V164.4H228.067V165.66H226.567V168H225.127V165.66ZM225.127 159.09H225.097L221.857 164.4H225.127V159.09ZM232.592 168.18C232.112 168.18 231.657 168.11 231.227 167.97C230.807 167.82 230.442 167.605 230.132 167.325C229.822 167.045 229.577 166.705 229.397 166.305C229.217 165.905 229.127 165.455 229.127 164.955C229.127 164.625 229.177 164.32 229.277 164.04C229.387 163.76 229.532 163.51 229.712 163.29C229.892 163.06 230.102 162.87 230.342 162.72C230.592 162.56 230.862 162.44 231.152 162.36V162.315C230.952 162.265 230.752 162.175 230.552 162.045C230.352 161.915 230.172 161.75 230.012 161.55C229.862 161.35 229.737 161.11 229.637 160.83C229.537 160.54 229.487 160.21 229.487 159.84C229.487 159.44 229.567 159.08 229.727 158.76C229.897 158.43 230.122 158.15 230.402 157.92C230.692 157.69 231.022 157.515 231.392 157.395C231.772 157.265 232.172 157.2 232.592 157.2C233.012 157.2 233.407 157.265 233.777 157.395C234.157 157.515 234.487 157.69 234.767 157.92C235.057 158.15 235.282 158.43 235.442 158.76C235.612 159.08 235.697 159.44 235.697 159.84C235.697 160.21 235.647 160.54 235.547 160.83C235.447 161.11 235.317 161.35 235.157 161.55C235.007 161.75 234.832 161.915 234.632 162.045C234.432 162.175 234.232 162.265 234.032 162.315V162.36C234.322 162.44 234.587 162.56 234.827 162.72C235.077 162.87 235.292 163.06 235.472 163.29C235.652 163.51 235.792 163.76 235.892 164.04C236.002 164.32 236.057 164.625 236.057 164.955C236.057 165.455 235.967 165.905 235.787 166.305C235.607 166.705 235.362 167.045 235.052 167.325C234.742 167.605 234.372 167.82 233.942 167.97C233.522 168.11 233.072 168.18 232.592 168.18ZM230.927 160.05C230.927 160.26 230.962 160.465 231.032 160.665C231.112 160.865 231.222 161.045 231.362 161.205C231.502 161.355 231.672 161.48 231.872 161.58C232.082 161.68 232.322 161.73 232.592 161.73C232.872 161.73 233.112 161.685 233.312 161.595C233.522 161.495 233.697 161.37 233.837 161.22C233.977 161.06 234.082 160.88 234.152 160.68C234.222 160.48 234.257 160.27 234.257 160.05C234.257 159.56 234.102 159.16 233.792 158.85C233.492 158.53 233.092 158.37 232.592 158.37C232.132 158.37 231.737 158.525 231.407 158.835C231.087 159.145 230.927 159.55 230.927 160.05ZM232.592 166.92C233.192 166.92 233.677 166.74 234.047 166.38C234.427 166.01 234.617 165.535 234.617 164.955C234.617 164.635 234.562 164.355 234.452 164.115C234.352 163.865 234.207 163.66 234.017 163.5C233.837 163.33 233.622 163.205 233.372 163.125C233.132 163.035 232.872 162.99 232.592 162.99C232.002 163 231.517 163.19 231.137 163.56C230.757 163.92 230.567 164.385 230.567 164.955C230.567 165.265 230.622 165.545 230.732 165.795C230.842 166.035 230.987 166.24 231.167 166.41C231.357 166.57 231.572 166.695 231.812 166.785C232.062 166.875 232.322 166.92 232.592 166.92Z" fill="#565656"/>
<path d="M48.5 251C48.5 242.992 54.9919 236.5 63 236.5H374C382.008 236.5 388.5 242.992 388.5 251V344.5H48.5V251Z" fill="white" stroke="#D4D4D4"/>
<circle cx="218.5" cy="236.5" r="20" fill="white" stroke="#D6D6D6"/>
<circle cx="212.5" cy="232.5" r="6.5" fill="#4285F4"/>
<circle cx="223" cy="244" r="4" fill="#F1BF42"/>
<circle cx="223" cy="236" r="3" fill="#EA4335"/>
<circle cx="228" cy="232" r="2" fill="#34A853"/>
<path d="M68.7829 268.224C68.9909 268.536 69.2549 268.768 69.5749 268.92C69.9029 269.064 70.2389 269.136 70.5829 269.136C70.7749 269.136 70.9709 269.108 71.1709 269.052C71.3709 268.988 71.5509 268.896 71.7109 268.776C71.8789 268.656 72.0149 268.508 72.1189 268.332C72.2229 268.156 72.2749 267.952 72.2749 267.72C72.2749 267.392 72.1709 267.144 71.9629 266.976C71.7549 266.8 71.4949 266.656 71.1829 266.544C70.8789 266.424 70.5429 266.312 70.1749 266.208C69.8149 266.096 69.4789 265.944 69.1669 265.752C68.8629 265.56 68.6069 265.304 68.3989 264.984C68.1909 264.656 68.0869 264.216 68.0869 263.664C68.0869 263.416 68.1389 263.152 68.2429 262.872C68.3549 262.592 68.5269 262.336 68.7589 262.104C68.9909 261.872 69.2869 261.68 69.6469 261.528C70.0149 261.368 70.4549 261.288 70.9669 261.288C71.4309 261.288 71.8749 261.352 72.2989 261.48C72.7229 261.608 73.0949 261.868 73.4149 262.26L72.4789 263.112C72.3349 262.888 72.1309 262.708 71.8669 262.572C71.6029 262.436 71.3029 262.368 70.9669 262.368C70.6469 262.368 70.3789 262.412 70.1629 262.5C69.9549 262.58 69.7869 262.688 69.6589 262.824C69.5309 262.952 69.4389 263.092 69.3829 263.244C69.3349 263.396 69.3109 263.536 69.3109 263.664C69.3109 264.024 69.4149 264.3 69.6229 264.492C69.8309 264.684 70.0869 264.84 70.3909 264.96C70.7029 265.08 71.0389 265.188 71.3989 265.284C71.7669 265.38 72.1029 265.516 72.4069 265.692C72.7189 265.86 72.9789 266.092 73.1869 266.388C73.3949 266.676 73.4989 267.076 73.4989 267.588C73.4989 267.996 73.4189 268.364 73.2589 268.692C73.1069 269.02 72.8989 269.296 72.6349 269.52C72.3709 269.744 72.0589 269.916 71.6989 270.036C71.3389 270.156 70.9549 270.216 70.5469 270.216C70.0029 270.216 69.4869 270.12 68.9989 269.928C68.5109 269.736 68.1229 269.44 67.8349 269.04L68.7829 268.224ZM74.7069 265.008C75.0109 264.728 75.3629 264.52 75.7629 264.384C76.1629 264.24 76.5629 264.168 76.9629 264.168C77.3789 264.168 77.7349 264.22 78.0309 264.324C78.3349 264.428 78.5829 264.568 78.7749 264.744C78.9669 264.92 79.1069 265.124 79.1949 265.356C79.2909 265.58 79.3389 265.816 79.3389 266.064V268.968C79.3389 269.168 79.3429 269.352 79.3509 269.52C79.3589 269.688 79.3709 269.848 79.3869 270H78.4269C78.4029 269.712 78.3909 269.424 78.3909 269.136H78.3669C78.1269 269.504 77.8429 269.764 77.5149 269.916C77.1869 270.068 76.8069 270.144 76.3749 270.144C76.1109 270.144 75.8589 270.108 75.6189 270.036C75.3789 269.964 75.1669 269.856 74.9829 269.712C74.8069 269.568 74.6669 269.392 74.5629 269.184C74.4589 268.968 74.4069 268.72 74.4069 268.44C74.4069 268.072 74.4869 267.764 74.6469 267.516C74.8149 267.268 75.0389 267.068 75.3189 266.916C75.6069 266.756 75.9389 266.644 76.3149 266.58C76.6989 266.508 77.1069 266.472 77.5389 266.472H78.3309V266.232C78.3309 266.088 78.3029 265.944 78.2469 265.8C78.1909 265.656 78.1069 265.528 77.9949 265.416C77.8829 265.296 77.7429 265.204 77.5749 265.14C77.4069 265.068 77.2069 265.032 76.9749 265.032C76.7669 265.032 76.5829 265.052 76.4229 265.092C76.2709 265.132 76.1309 265.184 76.0029 265.248C75.8749 265.304 75.7589 265.372 75.6549 265.452C75.5509 265.532 75.4509 265.608 75.3549 265.68L74.7069 265.008ZM77.7549 267.264C77.4989 267.264 77.2349 267.28 76.9629 267.312C76.6989 267.336 76.4549 267.388 76.2309 267.468C76.0149 267.548 75.8349 267.66 75.6909 267.804C75.5549 267.948 75.4869 268.132 75.4869 268.356C75.4869 268.684 75.5949 268.92 75.8109 269.064C76.0349 269.208 76.3349 269.28 76.7109 269.28C77.0069 269.28 77.2589 269.232 77.4669 269.136C77.6749 269.032 77.8429 268.9 77.9709 268.74C78.0989 268.58 78.1909 268.404 78.2469 268.212C78.3029 268.012 78.3309 267.816 78.3309 267.624V267.264H77.7549ZM80.7495 264.312H81.8295V270H80.7495V264.312ZM80.4975 262.272C80.4975 262.056 80.5735 261.872 80.7255 261.72C80.8855 261.56 81.0735 261.48 81.2895 261.48C81.5055 261.48 81.6895 261.56 81.8415 261.72C82.0015 261.872 82.0815 262.056 82.0815 262.272C82.0815 262.488 82.0015 262.676 81.8415 262.836C81.6895 262.988 81.5055 263.064 81.2895 263.064C81.0735 263.064 80.8855 262.988 80.7255 262.836C80.5735 262.676 80.4975 262.488 80.4975 262.272ZM89.0083 270H87.9283V269.184H87.9043C87.6963 269.488 87.4083 269.724 87.0403 269.892C86.6803 270.06 86.3083 270.144 85.9243 270.144C85.4843 270.144 85.0843 270.068 84.7243 269.916C84.3723 269.764 84.0683 269.552 83.8123 269.28C83.5643 269.008 83.3723 268.692 83.2363 268.332C83.1003 267.972 83.0323 267.58 83.0323 267.156C83.0323 266.732 83.1003 266.34 83.2363 265.98C83.3723 265.612 83.5643 265.296 83.8123 265.032C84.0683 264.76 84.3723 264.548 84.7243 264.396C85.0843 264.244 85.4843 264.168 85.9243 264.168C86.3323 264.168 86.7163 264.256 87.0763 264.432C87.4363 264.6 87.7123 264.832 87.9043 265.128H87.9283V260.928H89.0083V270ZM86.0563 269.136C86.3443 269.136 86.6043 269.088 86.8363 268.992C87.0683 268.888 87.2643 268.752 87.4243 268.584C87.5843 268.408 87.7083 268.2 87.7963 267.96C87.8843 267.712 87.9283 267.444 87.9283 267.156C87.9283 266.868 87.8843 266.604 87.7963 266.364C87.7083 266.116 87.5843 265.908 87.4243 265.74C87.2643 265.564 87.0683 265.428 86.8363 265.332C86.6043 265.228 86.3443 265.176 86.0563 265.176C85.7683 265.176 85.5083 265.228 85.2763 265.332C85.0443 265.428 84.8483 265.564 84.6883 265.74C84.5283 265.908 84.4043 266.116 84.3163 266.364C84.2283 266.604 84.1843 266.868 84.1843 267.156C84.1843 267.444 84.2283 267.712 84.3163 267.96C84.4043 268.2 84.5283 268.408 84.6883 268.584C84.8483 268.752 85.0443 268.888 85.2763 268.992C85.5083 269.088 85.7683 269.136 86.0563 269.136ZM96.5521 265.248H95.0041V267.828C95.0041 267.988 95.0081 268.148 95.0161 268.308C95.0241 268.46 95.0521 268.6 95.1001 268.728C95.1561 268.848 95.2361 268.948 95.3401 269.028C95.4521 269.1 95.6121 269.136 95.8201 269.136C95.9481 269.136 96.0801 269.124 96.2161 269.1C96.3521 269.076 96.4761 269.032 96.5881 268.968V269.952C96.4601 270.024 96.2921 270.072 96.0841 270.096C95.8841 270.128 95.7281 270.144 95.6161 270.144C95.2001 270.144 94.8761 270.088 94.6441 269.976C94.4201 269.856 94.2521 269.704 94.1401 269.52C94.0361 269.336 93.9721 269.132 93.9481 268.908C93.9321 268.676 93.9241 268.444 93.9241 268.212V265.248H92.6761V264.312H93.9241V262.716H95.0041V264.312H96.5521V265.248ZM98.5815 267.156C98.5815 267.444 98.6255 267.712 98.7135 267.96C98.8015 268.2 98.9255 268.408 99.0855 268.584C99.2455 268.752 99.4415 268.888 99.6735 268.992C99.9055 269.088 100.166 269.136 100.454 269.136C100.742 269.136 101.002 269.088 101.234 268.992C101.466 268.888 101.662 268.752 101.822 268.584C101.982 268.408 102.106 268.2 102.194 267.96C102.282 267.712 102.326 267.444 102.326 267.156C102.326 266.868 102.282 266.604 102.194 266.364C102.106 266.116 101.982 265.908 101.822 265.74C101.662 265.564 101.466 265.428 101.234 265.332C101.002 265.228 100.742 265.176 100.454 265.176C100.166 265.176 99.9055 265.228 99.6735 265.332C99.4415 265.428 99.2455 265.564 99.0855 265.74C98.9255 265.908 98.8015 266.116 98.7135 266.364C98.6255 266.604 98.5815 266.868 98.5815 267.156ZM97.4295 267.156C97.4295 266.74 97.5055 266.352 97.6575 265.992C97.8175 265.632 98.0335 265.316 98.3055 265.044C98.5775 264.772 98.8975 264.56 99.2655 264.408C99.6335 264.248 100.03 264.168 100.454 264.168C100.878 264.168 101.274 264.248 101.642 264.408C102.01 264.56 102.33 264.772 102.602 265.044C102.874 265.316 103.086 265.632 103.238 265.992C103.398 266.352 103.478 266.74 103.478 267.156C103.478 267.572 103.398 267.964 103.238 268.332C103.086 268.692 102.874 269.008 102.602 269.28C102.33 269.544 102.01 269.756 101.642 269.916C101.274 270.068 100.878 270.144 100.454 270.144C100.03 270.144 99.6335 270.068 99.2655 269.916C98.8975 269.756 98.5775 269.544 98.3055 269.28C98.0335 269.008 97.8175 268.692 97.6575 268.332C97.5055 267.964 97.4295 267.572 97.4295 267.156ZM111.758 265.824C111.558 265.616 111.346 265.46 111.122 265.356C110.906 265.244 110.646 265.188 110.342 265.188C110.046 265.188 109.786 265.244 109.562 265.356C109.346 265.46 109.162 265.608 109.01 265.8C108.866 265.984 108.754 266.2 108.674 266.448C108.602 266.688 108.566 266.94 108.566 267.204C108.566 267.468 108.61 267.72 108.698 267.96C108.786 268.192 108.91 268.396 109.07 268.572C109.23 268.748 109.422 268.888 109.646 268.992C109.87 269.088 110.122 269.136 110.402 269.136C110.706 269.136 110.966 269.084 111.182 268.98C111.398 268.868 111.598 268.708 111.782 268.5L112.55 269.268C112.27 269.58 111.942 269.804 111.566 269.94C111.198 270.076 110.806 270.144 110.39 270.144C109.95 270.144 109.546 270.072 109.178 269.928C108.818 269.784 108.506 269.584 108.242 269.328C107.978 269.064 107.774 268.752 107.63 268.392C107.486 268.024 107.414 267.62 107.414 267.18C107.414 266.74 107.486 266.336 107.63 265.968C107.774 265.6 107.974 265.284 108.23 265.02C108.494 264.756 108.806 264.552 109.166 264.408C109.534 264.256 109.942 264.18 110.39 264.18C110.806 264.18 111.202 264.256 111.578 264.408C111.962 264.552 112.294 264.776 112.574 265.08L111.758 265.824ZM113.263 265.008C113.567 264.728 113.919 264.52 114.319 264.384C114.719 264.24 115.119 264.168 115.519 264.168C115.935 264.168 116.291 264.22 116.587 264.324C116.891 264.428 117.139 264.568 117.331 264.744C117.523 264.92 117.663 265.124 117.751 265.356C117.847 265.58 117.895 265.816 117.895 266.064V268.968C117.895 269.168 117.899 269.352 117.907 269.52C117.915 269.688 117.927 269.848 117.943 270H116.983C116.959 269.712 116.947 269.424 116.947 269.136H116.923C116.683 269.504 116.399 269.764 116.071 269.916C115.743 270.068 115.363 270.144 114.931 270.144C114.667 270.144 114.415 270.108 114.175 270.036C113.935 269.964 113.723 269.856 113.539 269.712C113.363 269.568 113.223 269.392 113.119 269.184C113.015 268.968 112.963 268.72 112.963 268.44C112.963 268.072 113.043 267.764 113.203 267.516C113.371 267.268 113.595 267.068 113.875 266.916C114.163 266.756 114.495 266.644 114.871 266.58C115.255 266.508 115.663 266.472 116.095 266.472H116.887V266.232C116.887 266.088 116.859 265.944 116.803 265.8C116.747 265.656 116.663 265.528 116.551 265.416C116.439 265.296 116.299 265.204 116.131 265.14C115.963 265.068 115.763 265.032 115.531 265.032C115.323 265.032 115.139 265.052 114.979 265.092C114.827 265.132 114.687 265.184 114.559 265.248C114.431 265.304 114.315 265.372 114.211 265.452C114.107 265.532 114.007 265.608 113.911 265.68L113.263 265.008ZM116.311 267.264C116.055 267.264 115.791 267.28 115.519 267.312C115.255 267.336 115.011 267.388 114.787 267.468C114.571 267.548 114.391 267.66 114.247 267.804C114.111 267.948 114.043 268.132 114.043 268.356C114.043 268.684 114.151 268.92 114.367 269.064C114.591 269.208 114.891 269.28 115.267 269.28C115.563 269.28 115.815 269.232 116.023 269.136C116.231 269.032 116.399 268.9 116.527 268.74C116.655 268.58 116.747 268.404 116.803 268.212C116.859 268.012 116.887 267.816 116.887 267.624V267.264H116.311ZM119.306 260.928H120.386V270H119.306V260.928ZM121.949 260.928H123.029V270H121.949V260.928ZM125.324 267.552C125.324 267.8 125.376 268.028 125.48 268.236C125.592 268.436 125.736 268.608 125.912 268.752C126.088 268.896 126.292 269.008 126.524 269.088C126.756 269.168 126.996 269.208 127.244 269.208C127.58 269.208 127.872 269.132 128.12 268.98C128.368 268.82 128.596 268.612 128.804 268.356L129.62 268.98C129.02 269.756 128.18 270.144 127.1 270.144C126.652 270.144 126.244 270.068 125.876 269.916C125.516 269.764 125.208 269.556 124.952 269.292C124.704 269.02 124.512 268.704 124.376 268.344C124.24 267.976 124.172 267.58 124.172 267.156C124.172 266.732 124.244 266.34 124.388 265.98C124.54 265.612 124.744 265.296 125 265.032C125.264 264.76 125.576 264.548 125.936 264.396C126.296 264.244 126.688 264.168 127.112 264.168C127.616 264.168 128.04 264.256 128.384 264.432C128.736 264.608 129.024 264.84 129.248 265.128C129.472 265.408 129.632 265.728 129.728 266.088C129.832 266.44 129.884 266.8 129.884 267.168V267.552H125.324ZM128.732 266.688C128.724 266.448 128.684 266.228 128.612 266.028C128.548 265.828 128.448 265.656 128.312 265.512C128.176 265.36 128.004 265.244 127.796 265.164C127.596 265.076 127.36 265.032 127.088 265.032C126.824 265.032 126.58 265.084 126.356 265.188C126.14 265.284 125.956 265.412 125.804 265.572C125.652 265.732 125.532 265.912 125.444 266.112C125.364 266.304 125.324 266.496 125.324 266.688H128.732ZM130.936 264.312H132.016V265.188H132.04C132.112 265.036 132.208 264.9 132.328 264.78C132.448 264.652 132.58 264.544 132.724 264.456C132.876 264.368 133.04 264.3 133.216 264.252C133.392 264.196 133.568 264.168 133.744 264.168C133.92 264.168 134.08 264.192 134.224 264.24L134.176 265.404C134.088 265.38 134 265.36 133.912 265.344C133.824 265.328 133.736 265.32 133.648 265.32C133.12 265.32 132.716 265.468 132.436 265.764C132.156 266.06 132.016 266.52 132.016 267.144V270H130.936V264.312Z" fill="#964F55"/>
<path d="M68.092 290.504H69.244V294.032H73.648V290.504H74.8V299H73.648V295.112H69.244V299H68.092V290.504ZM76.5545 293.312H77.6345V299H76.5545V293.312ZM76.3025 291.272C76.3025 291.056 76.3785 290.872 76.5305 290.72C76.6905 290.56 76.8785 290.48 77.0945 290.48C77.3105 290.48 77.4945 290.56 77.6465 290.72C77.8065 290.872 77.8865 291.056 77.8865 291.272C77.8865 291.488 77.8065 291.676 77.6465 291.836C77.4945 291.988 77.3105 292.064 77.0945 292.064C76.8785 292.064 76.6905 291.988 76.5305 291.836C76.3785 291.676 76.3025 291.488 76.3025 291.272ZM79.8573 300.584H78.8733L79.7013 297.632H80.8653L79.8573 300.584ZM85.589 290.504H86.741V299H85.589V290.504ZM89.2529 293.456H88.2689L89.0969 290.504H90.2609L89.2529 293.456ZM91.5127 293.312H92.5207V294.2H92.5447C92.5687 294.12 92.6287 294.02 92.7247 293.9C92.8287 293.78 92.9567 293.668 93.1087 293.564C93.2687 293.452 93.4527 293.36 93.6607 293.288C93.8767 293.208 94.1127 293.168 94.3687 293.168C94.7927 293.168 95.1487 293.256 95.4367 293.432C95.7247 293.608 95.9607 293.872 96.1447 294.224C96.3287 293.872 96.5887 293.608 96.9247 293.432C97.2607 293.256 97.6007 293.168 97.9447 293.168C98.3847 293.168 98.7447 293.24 99.0247 293.384C99.3047 293.528 99.5247 293.72 99.6847 293.96C99.8447 294.192 99.9527 294.46 100.009 294.764C100.073 295.06 100.105 295.368 100.105 295.688V299H99.0247V295.832C99.0247 295.616 99.0087 295.408 98.9767 295.208C98.9527 295.008 98.8967 294.832 98.8087 294.68C98.7207 294.528 98.5967 294.408 98.4367 294.32C98.2767 294.224 98.0647 294.176 97.8007 294.176C97.2807 294.176 96.9087 294.336 96.6847 294.656C96.4607 294.976 96.3487 295.388 96.3487 295.892V299H95.2687V296.024C95.2687 295.752 95.2527 295.504 95.2207 295.28C95.1967 295.056 95.1407 294.864 95.0527 294.704C94.9727 294.536 94.8527 294.408 94.6927 294.32C94.5407 294.224 94.3327 294.176 94.0687 294.176C93.8767 294.176 93.6887 294.216 93.5047 294.296C93.3287 294.368 93.1727 294.48 93.0367 294.632C92.9007 294.784 92.7927 294.98 92.7127 295.22C92.6327 295.452 92.5927 295.728 92.5927 296.048V299H91.5127V293.312ZM104.615 294.008C104.919 293.728 105.271 293.52 105.671 293.384C106.071 293.24 106.471 293.168 106.871 293.168C107.287 293.168 107.643 293.22 107.939 293.324C108.243 293.428 108.491 293.568 108.683 293.744C108.875 293.92 109.015 294.124 109.103 294.356C109.199 294.58 109.247 294.816 109.247 295.064V297.968C109.247 298.168 109.251 298.352 109.259 298.52C109.267 298.688 109.279 298.848 109.295 299H108.335C108.311 298.712 108.299 298.424 108.299 298.136H108.275C108.035 298.504 107.751 298.764 107.423 298.916C107.095 299.068 106.715 299.144 106.283 299.144C106.019 299.144 105.767 299.108 105.527 299.036C105.287 298.964 105.075 298.856 104.891 298.712C104.715 298.568 104.575 298.392 104.471 298.184C104.367 297.968 104.315 297.72 104.315 297.44C104.315 297.072 104.395 296.764 104.555 296.516C104.723 296.268 104.947 296.068 105.227 295.916C105.515 295.756 105.847 295.644 106.223 295.58C106.607 295.508 107.015 295.472 107.447 295.472H108.239V295.232C108.239 295.088 108.211 294.944 108.155 294.8C108.099 294.656 108.015 294.528 107.903 294.416C107.791 294.296 107.651 294.204 107.483 294.14C107.315 294.068 107.115 294.032 106.883 294.032C106.675 294.032 106.491 294.052 106.331 294.092C106.179 294.132 106.039 294.184 105.911 294.248C105.783 294.304 105.667 294.372 105.563 294.452C105.459 294.532 105.359 294.608 105.263 294.68L104.615 294.008ZM107.663 296.264C107.407 296.264 107.143 296.28 106.871 296.312C106.607 296.336 106.363 296.388 106.139 296.468C105.923 296.548 105.743 296.66 105.599 296.804C105.463 296.948 105.395 297.132 105.395 297.356C105.395 297.684 105.503 297.92 105.719 298.064C105.943 298.208 106.243 298.28 106.619 298.28C106.915 298.28 107.167 298.232 107.375 298.136C107.583 298.032 107.751 297.9 107.879 297.74C108.007 297.58 108.099 297.404 108.155 297.212C108.211 297.012 108.239 296.816 108.239 296.624V296.264H107.663ZM121.186 294.248V298.436C120.978 298.564 120.742 298.676 120.478 298.772C120.214 298.868 119.938 298.948 119.65 299.012C119.37 299.084 119.082 299.136 118.786 299.168C118.498 299.2 118.226 299.216 117.97 299.216C117.25 299.216 116.606 299.096 116.038 298.856C115.478 298.616 115.002 298.292 114.61 297.884C114.226 297.476 113.93 297.004 113.722 296.468C113.522 295.924 113.422 295.352 113.422 294.752C113.422 294.12 113.53 293.532 113.746 292.988C113.97 292.444 114.274 291.972 114.658 291.572C115.05 291.172 115.518 290.86 116.062 290.636C116.606 290.404 117.202 290.288 117.85 290.288C118.634 290.288 119.274 290.388 119.77 290.588C120.266 290.78 120.682 291.048 121.018 291.392L120.202 292.268C119.85 291.932 119.478 291.7 119.086 291.572C118.694 291.436 118.282 291.368 117.85 291.368C117.362 291.368 116.922 291.46 116.53 291.644C116.138 291.82 115.802 292.06 115.522 292.364C115.242 292.668 115.026 293.028 114.874 293.444C114.722 293.852 114.646 294.288 114.646 294.752C114.646 295.232 114.73 295.68 114.898 296.096C115.066 296.504 115.298 296.86 115.594 297.164C115.89 297.468 116.238 297.708 116.638 297.884C117.038 298.052 117.474 298.136 117.946 298.136C118.354 298.136 118.738 298.1 119.098 298.028C119.466 297.948 119.778 297.836 120.034 297.692V295.328H118.15V294.248H121.186ZM123.65 296.156C123.65 296.444 123.694 296.712 123.782 296.96C123.87 297.2 123.994 297.408 124.154 297.584C124.314 297.752 124.51 297.888 124.742 297.992C124.974 298.088 125.234 298.136 125.522 298.136C125.81 298.136 126.07 298.088 126.302 297.992C126.534 297.888 126.73 297.752 126.89 297.584C127.05 297.408 127.174 297.2 127.262 296.96C127.35 296.712 127.394 296.444 127.394 296.156C127.394 295.868 127.35 295.604 127.262 295.364C127.174 295.116 127.05 294.908 126.89 294.74C126.73 294.564 126.534 294.428 126.302 294.332C126.07 294.228 125.81 294.176 125.522 294.176C125.234 294.176 124.974 294.228 124.742 294.332C124.51 294.428 124.314 294.564 124.154 294.74C123.994 294.908 123.87 295.116 123.782 295.364C123.694 295.604 123.65 295.868 123.65 296.156ZM122.498 296.156C122.498 295.74 122.574 295.352 122.726 294.992C122.886 294.632 123.102 294.316 123.374 294.044C123.646 293.772 123.966 293.56 124.334 293.408C124.702 293.248 125.098 293.168 125.522 293.168C125.946 293.168 126.342 293.248 126.71 293.408C127.078 293.56 127.398 293.772 127.67 294.044C127.942 294.316 128.154 294.632 128.306 294.992C128.466 295.352 128.546 295.74 128.546 296.156C128.546 296.572 128.466 296.964 128.306 297.332C128.154 297.692 127.942 298.008 127.67 298.28C127.398 298.544 127.078 298.756 126.71 298.916C126.342 299.068 125.946 299.144 125.522 299.144C125.098 299.144 124.702 299.068 124.334 298.916C123.966 298.756 123.646 298.544 123.374 298.28C123.102 298.008 122.886 297.692 122.726 297.332C122.574 296.964 122.498 296.572 122.498 296.156ZM130.535 296.156C130.535 296.444 130.579 296.712 130.667 296.96C130.755 297.2 130.879 297.408 131.039 297.584C131.199 297.752 131.395 297.888 131.627 297.992C131.859 298.088 132.119 298.136 132.407 298.136C132.695 298.136 132.955 298.088 133.187 297.992C133.419 297.888 133.615 297.752 133.775 297.584C133.935 297.408 134.059 297.2 134.147 296.96C134.235 296.712 134.279 296.444 134.279 296.156C134.279 295.868 134.235 295.604 134.147 295.364C134.059 295.116 133.935 294.908 133.775 294.74C133.615 294.564 133.419 294.428 133.187 294.332C132.955 294.228 132.695 294.176 132.407 294.176C132.119 294.176 131.859 294.228 131.627 294.332C131.395 294.428 131.199 294.564 131.039 294.74C130.879 294.908 130.755 295.116 130.667 295.364C130.579 295.604 130.535 295.868 130.535 296.156ZM129.383 296.156C129.383 295.74 129.459 295.352 129.611 294.992C129.771 294.632 129.987 294.316 130.259 294.044C130.531 293.772 130.851 293.56 131.219 293.408C131.587 293.248 131.983 293.168 132.407 293.168C132.831 293.168 133.227 293.248 133.595 293.408C133.963 293.56 134.283 293.772 134.555 294.044C134.827 294.316 135.039 294.632 135.191 294.992C135.351 295.352 135.431 295.74 135.431 296.156C135.431 296.572 135.351 296.964 135.191 297.332C135.039 297.692 134.827 298.008 134.555 298.28C134.283 298.544 133.963 298.756 133.595 298.916C133.227 299.068 132.831 299.144 132.407 299.144C131.983 299.144 131.587 299.068 131.219 298.916C130.851 298.756 130.531 298.544 130.259 298.28C129.987 298.008 129.771 297.692 129.611 297.332C129.459 296.964 129.383 296.572 129.383 296.156ZM142.244 298.952C142.244 299.384 142.168 299.776 142.016 300.128C141.872 300.488 141.664 300.796 141.392 301.052C141.12 301.316 140.792 301.52 140.408 301.664C140.024 301.808 139.6 301.88 139.136 301.88C138.592 301.88 138.092 301.804 137.636 301.652C137.188 301.5 136.76 301.236 136.352 300.86L137.084 299.948C137.364 300.252 137.668 300.48 137.996 300.632C138.324 300.792 138.696 300.872 139.112 300.872C139.512 300.872 139.844 300.812 140.108 300.692C140.372 300.58 140.58 300.432 140.732 300.248C140.892 300.064 141.004 299.852 141.068 299.612C141.132 299.38 141.164 299.144 141.164 298.904V298.064H141.128C140.92 298.408 140.636 298.664 140.276 298.832C139.924 298.992 139.552 299.072 139.16 299.072C138.744 299.072 138.356 299 137.996 298.856C137.644 298.704 137.34 298.5 137.084 298.244C136.828 297.98 136.628 297.672 136.484 297.32C136.34 296.96 136.268 296.572 136.268 296.156C136.268 295.74 136.336 295.352 136.472 294.992C136.608 294.624 136.8 294.304 137.048 294.032C137.304 293.76 137.608 293.548 137.96 293.396C138.32 293.244 138.72 293.168 139.16 293.168C139.544 293.168 139.916 293.252 140.276 293.42C140.644 293.588 140.932 293.824 141.14 294.128H141.164V293.312H142.244V298.952ZM139.292 294.176C139.004 294.176 138.744 294.228 138.512 294.332C138.28 294.428 138.084 294.564 137.924 294.74C137.764 294.908 137.64 295.116 137.552 295.364C137.464 295.604 137.42 295.868 137.42 296.156C137.42 296.732 137.588 297.196 137.924 297.548C138.26 297.892 138.716 298.064 139.292 298.064C139.868 298.064 140.324 297.892 140.66 297.548C140.996 297.196 141.164 296.732 141.164 296.156C141.164 295.868 141.12 295.604 141.032 295.364C140.944 295.116 140.82 294.908 140.66 294.74C140.5 294.564 140.304 294.428 140.072 294.332C139.84 294.228 139.58 294.176 139.292 294.176ZM143.724 289.928H144.804V299H143.724V289.928ZM147.098 296.552C147.098 296.8 147.15 297.028 147.254 297.236C147.366 297.436 147.51 297.608 147.686 297.752C147.862 297.896 148.066 298.008 148.298 298.088C148.53 298.168 148.77 298.208 149.018 298.208C149.354 298.208 149.646 298.132 149.894 297.98C150.142 297.82 150.37 297.612 150.578 297.356L151.394 297.98C150.794 298.756 149.954 299.144 148.874 299.144C148.426 299.144 148.018 299.068 147.65 298.916C147.29 298.764 146.982 298.556 146.726 298.292C146.478 298.02 146.286 297.704 146.15 297.344C146.014 296.976 145.946 296.58 145.946 296.156C145.946 295.732 146.018 295.34 146.162 294.98C146.314 294.612 146.518 294.296 146.774 294.032C147.038 293.76 147.35 293.548 147.71 293.396C148.07 293.244 148.462 293.168 148.886 293.168C149.39 293.168 149.814 293.256 150.158 293.432C150.51 293.608 150.798 293.84 151.022 294.128C151.246 294.408 151.406 294.728 151.502 295.088C151.606 295.44 151.658 295.8 151.658 296.168V296.552H147.098ZM150.506 295.688C150.498 295.448 150.458 295.228 150.386 295.028C150.322 294.828 150.222 294.656 150.086 294.512C149.95 294.36 149.778 294.244 149.57 294.164C149.37 294.076 149.134 294.032 148.862 294.032C148.598 294.032 148.354 294.084 148.13 294.188C147.914 294.284 147.73 294.412 147.578 294.572C147.426 294.732 147.306 294.912 147.218 295.112C147.138 295.304 147.098 295.496 147.098 295.688H150.506ZM155.126 293.312H156.374L158.078 297.668L159.71 293.312H160.862L158.63 299H157.442L155.126 293.312ZM161.654 293.312H162.734V299H161.654V293.312ZM161.402 291.272C161.402 291.056 161.478 290.872 161.63 290.72C161.79 290.56 161.978 290.48 162.194 290.48C162.41 290.48 162.594 290.56 162.746 290.72C162.906 290.872 162.986 291.056 162.986 291.272C162.986 291.488 162.906 291.676 162.746 291.836C162.594 291.988 162.41 292.064 162.194 292.064C161.978 292.064 161.79 291.988 161.63 291.836C161.478 291.676 161.402 291.488 161.402 291.272ZM164.213 293.312H165.293V294.188H165.317C165.389 294.036 165.485 293.9 165.605 293.78C165.725 293.652 165.857 293.544 166.001 293.456C166.153 293.368 166.317 293.3 166.493 293.252C166.669 293.196 166.845 293.168 167.021 293.168C167.197 293.168 167.357 293.192 167.501 293.24L167.453 294.404C167.365 294.38 167.277 294.36 167.189 294.344C167.101 294.328 167.013 294.32 166.925 294.32C166.397 294.32 165.993 294.468 165.713 294.764C165.433 295.06 165.293 295.52 165.293 296.144V299H164.213V293.312ZM171.462 294.248H169.914V296.828C169.914 296.988 169.918 297.148 169.926 297.308C169.934 297.46 169.962 297.6 170.01 297.728C170.066 297.848 170.146 297.948 170.25 298.028C170.362 298.1 170.522 298.136 170.73 298.136C170.858 298.136 170.99 298.124 171.126 298.1C171.262 298.076 171.386 298.032 171.498 297.968V298.952C171.37 299.024 171.202 299.072 170.994 299.096C170.794 299.128 170.638 299.144 170.526 299.144C170.11 299.144 169.786 299.088 169.554 298.976C169.33 298.856 169.162 298.704 169.05 298.52C168.946 298.336 168.882 298.132 168.858 297.908C168.842 297.676 168.834 297.444 168.834 297.212V294.248H167.586V293.312H168.834V291.716H169.914V293.312H171.462V294.248ZM177.656 299H176.576V298.124H176.552C176.416 298.428 176.18 298.676 175.844 298.868C175.508 299.052 175.12 299.144 174.68 299.144C174.4 299.144 174.136 299.1 173.888 299.012C173.64 298.932 173.42 298.804 173.228 298.628C173.044 298.452 172.896 298.228 172.784 297.956C172.672 297.676 172.616 297.348 172.616 296.972V293.312H173.696V296.672C173.696 296.936 173.732 297.164 173.804 297.356C173.876 297.54 173.972 297.692 174.092 297.812C174.212 297.924 174.348 298.008 174.5 298.064C174.66 298.112 174.824 298.136 174.992 298.136C175.216 298.136 175.424 298.1 175.616 298.028C175.808 297.956 175.976 297.844 176.12 297.692C176.264 297.532 176.376 297.332 176.456 297.092C176.536 296.852 176.576 296.568 176.576 296.24V293.312H177.656V299ZM179.068 294.008C179.372 293.728 179.724 293.52 180.124 293.384C180.524 293.24 180.924 293.168 181.324 293.168C181.74 293.168 182.096 293.22 182.392 293.324C182.696 293.428 182.944 293.568 183.136 293.744C183.328 293.92 183.468 294.124 183.556 294.356C183.652 294.58 183.7 294.816 183.7 295.064V297.968C183.7 298.168 183.704 298.352 183.712 298.52C183.72 298.688 183.732 298.848 183.748 299H182.788C182.764 298.712 182.752 298.424 182.752 298.136H182.728C182.488 298.504 182.204 298.764 181.876 298.916C181.548 299.068 181.168 299.144 180.736 299.144C180.472 299.144 180.22 299.108 179.98 299.036C179.74 298.964 179.528 298.856 179.344 298.712C179.168 298.568 179.028 298.392 178.924 298.184C178.82 297.968 178.768 297.72 178.768 297.44C178.768 297.072 178.848 296.764 179.008 296.516C179.176 296.268 179.4 296.068 179.68 295.916C179.968 295.756 180.3 295.644 180.676 295.58C181.06 295.508 181.468 295.472 181.9 295.472H182.692V295.232C182.692 295.088 182.664 294.944 182.608 294.8C182.552 294.656 182.468 294.528 182.356 294.416C182.244 294.296 182.104 294.204 181.936 294.14C181.768 294.068 181.568 294.032 181.336 294.032C181.128 294.032 180.944 294.052 180.784 294.092C180.632 294.132 180.492 294.184 180.364 294.248C180.236 294.304 180.12 294.372 180.016 294.452C179.912 294.532 179.812 294.608 179.716 294.68L179.068 294.008ZM182.116 296.264C181.86 296.264 181.596 296.28 181.324 296.312C181.06 296.336 180.816 296.388 180.592 296.468C180.376 296.548 180.196 296.66 180.052 296.804C179.916 296.948 179.848 297.132 179.848 297.356C179.848 297.684 179.956 297.92 180.172 298.064C180.396 298.208 180.696 298.28 181.072 298.28C181.368 298.28 181.62 298.232 181.828 298.136C182.036 298.032 182.204 297.9 182.332 297.74C182.46 297.58 182.552 297.404 182.608 297.212C182.664 297.012 182.692 296.816 182.692 296.624V296.264H182.116ZM185.11 289.928H186.19V299H185.11V289.928ZM194.837 294.824C194.637 294.616 194.425 294.46 194.201 294.356C193.985 294.244 193.725 294.188 193.421 294.188C193.125 294.188 192.865 294.244 192.641 294.356C192.425 294.46 192.241 294.608 192.089 294.8C191.945 294.984 191.833 295.2 191.753 295.448C191.681 295.688 191.645 295.94 191.645 296.204C191.645 296.468 191.689 296.72 191.777 296.96C191.865 297.192 191.989 297.396 192.149 297.572C192.309 297.748 192.501 297.888 192.725 297.992C192.949 298.088 193.201 298.136 193.481 298.136C193.785 298.136 194.045 298.084 194.261 297.98C194.477 297.868 194.677 297.708 194.861 297.5L195.629 298.268C195.349 298.58 195.021 298.804 194.645 298.94C194.277 299.076 193.885 299.144 193.469 299.144C193.029 299.144 192.625 299.072 192.257 298.928C191.897 298.784 191.585 298.584 191.321 298.328C191.057 298.064 190.853 297.752 190.709 297.392C190.565 297.024 190.493 296.62 190.493 296.18C190.493 295.74 190.565 295.336 190.709 294.968C190.853 294.6 191.053 294.284 191.309 294.02C191.573 293.756 191.885 293.552 192.245 293.408C192.613 293.256 193.021 293.18 193.469 293.18C193.885 293.18 194.281 293.256 194.657 293.408C195.041 293.552 195.373 293.776 195.653 294.08L194.837 294.824ZM196.342 294.008C196.646 293.728 196.998 293.52 197.398 293.384C197.798 293.24 198.198 293.168 198.598 293.168C199.014 293.168 199.37 293.22 199.666 293.324C199.97 293.428 200.218 293.568 200.41 293.744C200.602 293.92 200.742 294.124 200.83 294.356C200.926 294.58 200.974 294.816 200.974 295.064V297.968C200.974 298.168 200.978 298.352 200.986 298.52C200.994 298.688 201.006 298.848 201.022 299H200.062C200.038 298.712 200.026 298.424 200.026 298.136H200.002C199.762 298.504 199.478 298.764 199.15 298.916C198.822 299.068 198.442 299.144 198.01 299.144C197.746 299.144 197.494 299.108 197.254 299.036C197.014 298.964 196.802 298.856 196.618 298.712C196.442 298.568 196.302 298.392 196.198 298.184C196.094 297.968 196.042 297.72 196.042 297.44C196.042 297.072 196.122 296.764 196.282 296.516C196.45 296.268 196.674 296.068 196.954 295.916C197.242 295.756 197.574 295.644 197.95 295.58C198.334 295.508 198.742 295.472 199.174 295.472H199.966V295.232C199.966 295.088 199.938 294.944 199.882 294.8C199.826 294.656 199.742 294.528 199.63 294.416C199.518 294.296 199.378 294.204 199.21 294.14C199.042 294.068 198.842 294.032 198.61 294.032C198.402 294.032 198.218 294.052 198.058 294.092C197.906 294.132 197.766 294.184 197.638 294.248C197.51 294.304 197.394 294.372 197.29 294.452C197.186 294.532 197.086 294.608 196.99 294.68L196.342 294.008ZM199.39 296.264C199.134 296.264 198.87 296.28 198.598 296.312C198.334 296.336 198.09 296.388 197.866 296.468C197.65 296.548 197.47 296.66 197.326 296.804C197.19 296.948 197.122 297.132 197.122 297.356C197.122 297.684 197.23 297.92 197.446 298.064C197.67 298.208 197.97 298.28 198.346 298.28C198.642 298.28 198.894 298.232 199.102 298.136C199.31 298.032 199.478 297.9 199.606 297.74C199.734 297.58 199.826 297.404 199.882 297.212C199.938 297.012 199.966 296.816 199.966 296.624V296.264H199.39ZM202.385 289.928H203.465V299H202.385V289.928ZM205.028 289.928H206.108V299H205.028V289.928ZM207.67 293.312H208.75V299H207.67V293.312ZM207.418 291.272C207.418 291.056 207.494 290.872 207.646 290.72C207.806 290.56 207.994 290.48 208.21 290.48C208.426 290.48 208.61 290.56 208.762 290.72C208.922 290.872 209.002 291.056 209.002 291.272C209.002 291.488 208.922 291.676 208.762 291.836C208.61 291.988 208.426 292.064 208.21 292.064C207.994 292.064 207.806 291.988 207.646 291.836C207.494 291.676 207.418 291.488 207.418 291.272ZM210.229 293.312H211.309V294.188H211.333C211.469 293.884 211.705 293.64 212.041 293.456C212.377 293.264 212.765 293.168 213.205 293.168C213.477 293.168 213.737 293.212 213.985 293.3C214.241 293.38 214.461 293.508 214.645 293.684C214.837 293.86 214.989 294.088 215.101 294.368C215.213 294.64 215.269 294.964 215.269 295.34V299H214.189V295.64C214.189 295.376 214.153 295.152 214.081 294.968C214.009 294.776 213.913 294.624 213.793 294.512C213.673 294.392 213.533 294.308 213.373 294.26C213.221 294.204 213.061 294.176 212.893 294.176C212.669 294.176 212.461 294.212 212.269 294.284C212.077 294.356 211.909 294.472 211.765 294.632C211.621 294.784 211.509 294.98 211.429 295.22C211.349 295.46 211.309 295.744 211.309 296.072V299H210.229V293.312ZM222.357 298.952C222.357 299.384 222.281 299.776 222.129 300.128C221.985 300.488 221.777 300.796 221.505 301.052C221.233 301.316 220.905 301.52 220.521 301.664C220.137 301.808 219.713 301.88 219.249 301.88C218.705 301.88 218.205 301.804 217.749 301.652C217.301 301.5 216.873 301.236 216.465 300.86L217.197 299.948C217.477 300.252 217.781 300.48 218.109 300.632C218.437 300.792 218.809 300.872 219.225 300.872C219.625 300.872 219.957 300.812 220.221 300.692C220.485 300.58 220.693 300.432 220.845 300.248C221.005 300.064 221.117 299.852 221.181 299.612C221.245 299.38 221.277 299.144 221.277 298.904V298.064H221.241C221.033 298.408 220.749 298.664 220.389 298.832C220.037 298.992 219.665 299.072 219.273 299.072C218.857 299.072 218.469 299 218.109 298.856C217.757 298.704 217.453 298.5 217.197 298.244C216.941 297.98 216.741 297.672 216.597 297.32C216.453 296.96 216.381 296.572 216.381 296.156C216.381 295.74 216.449 295.352 216.585 294.992C216.721 294.624 216.913 294.304 217.161 294.032C217.417 293.76 217.721 293.548 218.073 293.396C218.433 293.244 218.833 293.168 219.273 293.168C219.657 293.168 220.029 293.252 220.389 293.42C220.757 293.588 221.045 293.824 221.253 294.128H221.277V293.312H222.357V298.952ZM219.405 294.176C219.117 294.176 218.857 294.228 218.625 294.332C218.393 294.428 218.197 294.564 218.037 294.74C217.877 294.908 217.753 295.116 217.665 295.364C217.577 295.604 217.533 295.868 217.533 296.156C217.533 296.732 217.701 297.196 218.037 297.548C218.373 297.892 218.829 298.064 219.405 298.064C219.981 298.064 220.437 297.892 220.773 297.548C221.109 297.196 221.277 296.732 221.277 296.156C221.277 295.868 221.233 295.604 221.145 295.364C221.057 295.116 220.933 294.908 220.773 294.74C220.613 294.564 220.417 294.428 220.185 294.332C219.953 294.228 219.693 294.176 219.405 294.176ZM226.877 294.008C227.181 293.728 227.533 293.52 227.933 293.384C228.333 293.24 228.733 293.168 229.133 293.168C229.549 293.168 229.905 293.22 230.201 293.324C230.505 293.428 230.753 293.568 230.945 293.744C231.137 293.92 231.277 294.124 231.365 294.356C231.461 294.58 231.509 294.816 231.509 295.064V297.968C231.509 298.168 231.513 298.352 231.521 298.52C231.529 298.688 231.541 298.848 231.557 299H230.597C230.573 298.712 230.561 298.424 230.561 298.136H230.537C230.297 298.504 230.013 298.764 229.685 298.916C229.357 299.068 228.977 299.144 228.545 299.144C228.281 299.144 228.029 299.108 227.789 299.036C227.549 298.964 227.337 298.856 227.153 298.712C226.977 298.568 226.837 298.392 226.733 298.184C226.629 297.968 226.577 297.72 226.577 297.44C226.577 297.072 226.657 296.764 226.817 296.516C226.985 296.268 227.209 296.068 227.489 295.916C227.777 295.756 228.109 295.644 228.485 295.58C228.869 295.508 229.277 295.472 229.709 295.472H230.501V295.232C230.501 295.088 230.473 294.944 230.417 294.8C230.361 294.656 230.277 294.528 230.165 294.416C230.053 294.296 229.913 294.204 229.745 294.14C229.577 294.068 229.377 294.032 229.145 294.032C228.937 294.032 228.753 294.052 228.593 294.092C228.441 294.132 228.301 294.184 228.173 294.248C228.045 294.304 227.929 294.372 227.825 294.452C227.721 294.532 227.621 294.608 227.525 294.68L226.877 294.008ZM229.925 296.264C229.669 296.264 229.405 296.28 229.133 296.312C228.869 296.336 228.625 296.388 228.401 296.468C228.185 296.548 228.005 296.66 227.861 296.804C227.725 296.948 227.657 297.132 227.657 297.356C227.657 297.684 227.765 297.92 227.981 298.064C228.205 298.208 228.505 298.28 228.881 298.28C229.177 298.28 229.429 298.232 229.637 298.136C229.845 298.032 230.013 297.9 230.141 297.74C230.269 297.58 230.361 297.404 230.417 297.212C230.473 297.012 230.501 296.816 230.501 296.624V296.264H229.925ZM235.86 294.74C235.732 294.58 235.572 294.448 235.38 294.344C235.196 294.232 234.968 294.176 234.696 294.176C234.44 294.176 234.216 294.232 234.024 294.344C233.84 294.448 233.748 294.604 233.748 294.812C233.748 294.98 233.8 295.116 233.904 295.22C234.016 295.324 234.144 295.408 234.288 295.472C234.44 295.536 234.6 295.584 234.768 295.616C234.936 295.648 235.08 295.676 235.2 295.7C235.432 295.756 235.648 295.824 235.848 295.904C236.056 295.984 236.232 296.088 236.376 296.216C236.528 296.344 236.644 296.5 236.724 296.684C236.812 296.868 236.856 297.092 236.856 297.356C236.856 297.676 236.788 297.952 236.652 298.184C236.516 298.408 236.34 298.592 236.124 298.736C235.908 298.88 235.66 298.984 235.38 299.048C235.108 299.112 234.832 299.144 234.552 299.144C234.08 299.144 233.664 299.072 233.304 298.928C232.952 298.784 232.636 298.52 232.356 298.136L233.172 297.464C233.348 297.64 233.544 297.796 233.76 297.932C233.976 298.068 234.24 298.136 234.552 298.136C234.688 298.136 234.824 298.124 234.96 298.1C235.104 298.068 235.228 298.024 235.332 297.968C235.444 297.904 235.532 297.828 235.596 297.74C235.668 297.644 235.704 297.536 235.704 297.416C235.704 297.256 235.652 297.124 235.548 297.02C235.452 296.916 235.332 296.836 235.188 296.78C235.052 296.716 234.904 296.668 234.744 296.636C234.592 296.596 234.456 296.564 234.336 296.54C234.104 296.484 233.884 296.42 233.676 296.348C233.468 296.276 233.284 296.18 233.124 296.06C232.964 295.94 232.836 295.788 232.74 295.604C232.644 295.42 232.596 295.192 232.596 294.92C232.596 294.624 232.656 294.368 232.776 294.152C232.904 293.928 233.068 293.744 233.268 293.6C233.476 293.456 233.708 293.348 233.964 293.276C234.228 293.204 234.492 293.168 234.756 293.168C235.14 293.168 235.508 293.24 235.86 293.384C236.212 293.528 236.492 293.768 236.7 294.104L235.86 294.74ZM240.952 294.74C240.824 294.58 240.664 294.448 240.472 294.344C240.288 294.232 240.06 294.176 239.788 294.176C239.532 294.176 239.308 294.232 239.116 294.344C238.932 294.448 238.84 294.604 238.84 294.812C238.84 294.98 238.892 295.116 238.996 295.22C239.108 295.324 239.236 295.408 239.38 295.472C239.532 295.536 239.692 295.584 239.86 295.616C240.028 295.648 240.172 295.676 240.292 295.7C240.524 295.756 240.74 295.824 240.94 295.904C241.148 295.984 241.324 296.088 241.468 296.216C241.62 296.344 241.736 296.5 241.816 296.684C241.904 296.868 241.948 297.092 241.948 297.356C241.948 297.676 241.88 297.952 241.744 298.184C241.608 298.408 241.432 298.592 241.216 298.736C241 298.88 240.752 298.984 240.472 299.048C240.2 299.112 239.924 299.144 239.644 299.144C239.172 299.144 238.756 299.072 238.396 298.928C238.044 298.784 237.728 298.52 237.448 298.136L238.264 297.464C238.44 297.64 238.636 297.796 238.852 297.932C239.068 298.068 239.332 298.136 239.644 298.136C239.78 298.136 239.916 298.124 240.052 298.1C240.196 298.068 240.32 298.024 240.424 297.968C240.536 297.904 240.624 297.828 240.688 297.74C240.76 297.644 240.796 297.536 240.796 297.416C240.796 297.256 240.744 297.124 240.64 297.02C240.544 296.916 240.424 296.836 240.28 296.78C240.144 296.716 239.996 296.668 239.836 296.636C239.684 296.596 239.548 296.564 239.428 296.54C239.196 296.484 238.976 296.42 238.768 296.348C238.56 296.276 238.376 296.18 238.216 296.06C238.056 295.94 237.928 295.788 237.832 295.604C237.736 295.42 237.688 295.192 237.688 294.92C237.688 294.624 237.748 294.368 237.868 294.152C237.996 293.928 238.16 293.744 238.36 293.6C238.568 293.456 238.8 293.348 239.056 293.276C239.32 293.204 239.584 293.168 239.848 293.168C240.232 293.168 240.6 293.24 240.952 293.384C241.304 293.528 241.584 293.768 241.792 294.104L240.952 294.74ZM243.104 293.312H244.184V299H243.104V293.312ZM242.852 291.272C242.852 291.056 242.928 290.872 243.08 290.72C243.24 290.56 243.428 290.48 243.644 290.48C243.86 290.48 244.044 290.56 244.196 290.72C244.356 290.872 244.436 291.056 244.436 291.272C244.436 291.488 244.356 291.676 244.196 291.836C244.044 291.988 243.86 292.064 243.644 292.064C243.428 292.064 243.24 291.988 243.08 291.836C242.928 291.676 242.852 291.488 242.852 291.272ZM248.687 294.74C248.559 294.58 248.399 294.448 248.207 294.344C248.023 294.232 247.795 294.176 247.523 294.176C247.267 294.176 247.043 294.232 246.851 294.344C246.667 294.448 246.575 294.604 246.575 294.812C246.575 294.98 246.627 295.116 246.731 295.22C246.843 295.324 246.971 295.408 247.115 295.472C247.267 295.536 247.427 295.584 247.595 295.616C247.763 295.648 247.907 295.676 248.027 295.7C248.259 295.756 248.475 295.824 248.675 295.904C248.883 295.984 249.059 296.088 249.203 296.216C249.355 296.344 249.471 296.5 249.551 296.684C249.639 296.868 249.683 297.092 249.683 297.356C249.683 297.676 249.615 297.952 249.479 298.184C249.343 298.408 249.167 298.592 248.951 298.736C248.735 298.88 248.487 298.984 248.207 299.048C247.935 299.112 247.659 299.144 247.379 299.144C246.907 299.144 246.491 299.072 246.131 298.928C245.779 298.784 245.463 298.52 245.183 298.136L245.999 297.464C246.175 297.64 246.371 297.796 246.587 297.932C246.803 298.068 247.067 298.136 247.379 298.136C247.515 298.136 247.651 298.124 247.787 298.1C247.931 298.068 248.055 298.024 248.159 297.968C248.271 297.904 248.359 297.828 248.423 297.74C248.495 297.644 248.531 297.536 248.531 297.416C248.531 297.256 248.479 297.124 248.375 297.02C248.279 296.916 248.159 296.836 248.015 296.78C247.879 296.716 247.731 296.668 247.571 296.636C247.419 296.596 247.283 296.564 247.163 296.54C246.931 296.484 246.711 296.42 246.503 296.348C246.295 296.276 246.111 296.18 245.951 296.06C245.791 295.94 245.663 295.788 245.567 295.604C245.471 295.42 245.423 295.192 245.423 294.92C245.423 294.624 245.483 294.368 245.603 294.152C245.731 293.928 245.895 293.744 246.095 293.6C246.303 293.456 246.535 293.348 246.791 293.276C247.055 293.204 247.319 293.168 247.583 293.168C247.967 293.168 248.335 293.24 248.687 293.384C249.039 293.528 249.319 293.768 249.527 294.104L248.687 294.74ZM253.803 294.248H252.255V296.828C252.255 296.988 252.259 297.148 252.267 297.308C252.275 297.46 252.303 297.6 252.351 297.728C252.407 297.848 252.487 297.948 252.591 298.028C252.703 298.1 252.863 298.136 253.071 298.136C253.199 298.136 253.331 298.124 253.467 298.1C253.603 298.076 253.727 298.032 253.839 297.968V298.952C253.711 299.024 253.543 299.072 253.335 299.096C253.135 299.128 252.979 299.144 252.867 299.144C252.451 299.144 252.127 299.088 251.895 298.976C251.671 298.856 251.503 298.704 251.391 298.52C251.287 298.336 251.223 298.132 251.199 297.908C251.183 297.676 251.175 297.444 251.175 297.212V294.248H249.927V293.312H251.175V291.716H252.255V293.312H253.803V294.248ZM254.98 294.008C255.284 293.728 255.636 293.52 256.036 293.384C256.436 293.24 256.836 293.168 257.236 293.168C257.652 293.168 258.008 293.22 258.304 293.324C258.608 293.428 258.856 293.568 259.048 293.744C259.24 293.92 259.38 294.124 259.468 294.356C259.564 294.58 259.612 294.816 259.612 295.064V297.968C259.612 298.168 259.616 298.352 259.624 298.52C259.632 298.688 259.644 298.848 259.66 299H258.7C258.676 298.712 258.664 298.424 258.664 298.136H258.64C258.4 298.504 258.116 298.764 257.788 298.916C257.46 299.068 257.08 299.144 256.648 299.144C256.384 299.144 256.132 299.108 255.892 299.036C255.652 298.964 255.44 298.856 255.256 298.712C255.08 298.568 254.94 298.392 254.836 298.184C254.732 297.968 254.68 297.72 254.68 297.44C254.68 297.072 254.76 296.764 254.92 296.516C255.088 296.268 255.312 296.068 255.592 295.916C255.88 295.756 256.212 295.644 256.588 295.58C256.972 295.508 257.38 295.472 257.812 295.472H258.604V295.232C258.604 295.088 258.576 294.944 258.52 294.8C258.464 294.656 258.38 294.528 258.268 294.416C258.156 294.296 258.016 294.204 257.848 294.14C257.68 294.068 257.48 294.032 257.248 294.032C257.04 294.032 256.856 294.052 256.696 294.092C256.544 294.132 256.404 294.184 256.276 294.248C256.148 294.304 256.032 294.372 255.928 294.452C255.824 294.532 255.724 294.608 255.628 294.68L254.98 294.008ZM258.028 296.264C257.772 296.264 257.508 296.28 257.236 296.312C256.972 296.336 256.728 296.388 256.504 296.468C256.288 296.548 256.108 296.66 255.964 296.804C255.828 296.948 255.76 297.132 255.76 297.356C255.76 297.684 255.868 297.92 256.084 298.064C256.308 298.208 256.608 298.28 256.984 298.28C257.28 298.28 257.532 298.232 257.74 298.136C257.948 298.032 258.116 297.9 258.244 297.74C258.372 297.58 258.464 297.404 258.52 297.212C258.576 297.012 258.604 296.816 258.604 296.624V296.264H258.028ZM260.939 293.312H262.019V294.188H262.043C262.179 293.884 262.415 293.64 262.751 293.456C263.087 293.264 263.475 293.168 263.915 293.168C264.187 293.168 264.447 293.212 264.695 293.3C264.951 293.38 265.171 293.508 265.355 293.684C265.547 293.86 265.699 294.088 265.811 294.368C265.923 294.64 265.979 294.964 265.979 295.34V299H264.899V295.64C264.899 295.376 264.863 295.152 264.791 294.968C264.719 294.776 264.623 294.624 264.503 294.512C264.383 294.392 264.243 294.308 264.083 294.26C263.931 294.204 263.771 294.176 263.603 294.176C263.379 294.176 263.171 294.212 262.979 294.284C262.787 294.356 262.619 294.472 262.475 294.632C262.331 294.784 262.219 294.98 262.139 295.22C262.059 295.46 262.019 295.744 262.019 296.072V299H260.939V293.312ZM270.415 294.248H268.867V296.828C268.867 296.988 268.871 297.148 268.879 297.308C268.887 297.46 268.915 297.6 268.963 297.728C269.019 297.848 269.099 297.948 269.203 298.028C269.315 298.1 269.475 298.136 269.683 298.136C269.811 298.136 269.943 298.124 270.079 298.1C270.215 298.076 270.339 298.032 270.451 297.968V298.952C270.323 299.024 270.155 299.072 269.947 299.096C269.747 299.128 269.591 299.144 269.479 299.144C269.063 299.144 268.739 299.088 268.507 298.976C268.283 298.856 268.115 298.704 268.003 298.52C267.899 298.336 267.835 298.132 267.811 297.908C267.795 297.676 267.787 297.444 267.787 297.212V294.248H266.539V293.312H267.787V291.716H268.867V293.312H270.415V294.248Z" fill="black"/>
</g>
<defs>
<clipPath id="clip0_419_23">
<path d="M12 54C12 31.9086 29.9086 14 52 14H384C406.091 14 424 31.9086 424 54V308H12V54Z" fill="white"/>
</clipPath>
</defs>
</svg>
