<svg width="11" height="12" viewBox="0 0 11 12" fill="none" xmlns="http://www.w3.org/2000/svg">
<path d="M5.552 11.312C4.592 11.312 3.704 11.072 2.888 10.592C2.088 10.096 1.448 9.432 0.968 8.6C0.488 7.768 0.248 6.864 0.248 5.888C0.248 4.912 0.488 4.008 0.968 3.176C1.448 2.344 2.088 1.688 2.888 1.208C3.704 0.711999 4.592 0.464 5.552 0.464C6.512 0.464 7.392 0.711999 8.192 1.208C9.008 1.688 9.656 2.344 10.136 3.176C10.616 4.008 10.856 4.912 10.856 5.888C10.856 6.864 10.616 7.768 10.136 8.6C9.656 9.432 9.008 10.096 8.192 10.592C7.392 11.072 6.512 11.312 5.552 11.312ZM5.552 10.52C6.368 10.52 7.12 10.312 7.808 9.896C8.496 9.48 9.04 8.92 9.44 8.216C9.856 7.512 10.064 6.736 10.064 5.888C10.064 5.04 9.856 4.264 9.44 3.56C9.04 2.856 8.496 2.296 7.808 1.88C7.12 1.464 6.368 1.256 5.552 1.256C4.736 1.256 3.984 1.464 3.296 1.88C2.608 2.296 2.056 2.856 1.64 3.56C1.24 4.264 1.04 5.04 1.04 5.888C1.04 6.736 1.24 7.512 1.64 8.216C2.056 8.92 2.608 9.48 3.296 9.896C3.984 10.312 4.736 10.52 5.552 10.52ZM5.336 8.552C4.6 8.552 3.96 8.288 3.416 7.76C2.888 7.232 2.624 6.6 2.624 5.864C2.624 4.968 2.896 4.248 3.44 3.704C3.984 3.16 4.704 2.888 5.6 2.888C6.144 2.888 6.728 3.096 7.352 3.512C7.496 3.608 7.568 3.736 7.568 3.896C7.568 4.008 7.528 4.104 7.448 4.184C7.384 4.248 7.296 4.28 7.184 4.28C7.072 4.28 6.968 4.232 6.872 4.136C6.456 3.832 6.032 3.68 5.6 3.68C4.752 3.68 4.176 3.912 3.872 4.376C3.584 4.824 3.44 5.32 3.44 5.864C3.44 6.408 3.632 6.864 4.016 7.232C4.416 7.584 4.856 7.76 5.336 7.76C5.768 7.76 6.152 7.688 6.488 7.544C6.84 7.384 7.104 7.152 7.28 6.848C7.424 6.64 7.56 6.536 7.688 6.536C7.8 6.536 7.896 6.576 7.976 6.656C8.056 6.736 8.096 6.832 8.096 6.944C8.096 7.056 8.056 7.16 7.976 7.256C7.352 8.12 6.472 8.552 5.336 8.552Z" fill="white"/>
</svg>
