<svg width="35" height="35" viewBox="0 0 35 35" fill="none" xmlns="http://www.w3.org/2000/svg">
<path d="M22.92 13.42H12.08C10.3779 13.3537 8.76769 12.6309 7.58693 11.4032C6.40618 10.1755 5.74664 8.53834 5.74664 6.835C5.74664 5.13166 6.40618 3.49448 7.58693 2.26681C8.76769 1.03914 10.3779 0.31634 12.08 0.25H22.92C24.622 0.31634 26.2323 1.03914 27.413 2.26681C28.5938 3.49448 29.2533 5.13166 29.2533 6.835C29.2533 8.53834 28.5938 10.1755 27.413 11.4032C26.2323 12.6309 24.622 13.3537 22.92 13.42ZM12.08 2.75C11.0315 2.80189 10.0432 3.25492 9.31947 4.01532C8.59578 4.77572 8.19216 5.78527 8.19216 6.835C8.19216 7.88473 8.59578 8.89428 9.31947 9.65468C10.0432 10.4151 11.0315 10.8681 12.08 10.92H22.92C23.9684 10.8681 24.9568 10.4151 25.6805 9.65468C26.4042 8.89428 26.8078 7.88473 26.8078 6.835C26.8078 5.78527 26.4042 4.77572 25.6805 4.01532C24.9568 3.25492 23.9684 2.80189 22.92 2.75H12.08Z" fill="#DDDDDD"/>
<path d="M17.42 24.0799H12.08C10.3349 24.0799 8.66123 23.3867 7.42724 22.1527C6.19325 20.9187 5.5 19.245 5.5 17.4999C5.5 15.7548 6.19325 14.0811 7.42724 12.8472C8.66123 11.6132 10.3349 10.9199 12.08 10.9199C12.4115 10.9199 12.7295 11.0516 12.9639 11.286C13.1983 11.5205 13.33 11.8384 13.33 12.1699C13.33 12.5014 13.1983 12.8194 12.9639 13.0538C12.7295 13.2882 12.4115 13.4199 12.08 13.4199C10.9979 13.4199 9.96015 13.8498 9.195 14.6149C8.42986 15.3801 8 16.4178 8 17.4999C8 18.582 8.42986 19.6198 9.195 20.3849C9.96015 21.1501 10.9979 21.5799 12.08 21.5799H16.17V12.1699C16.17 11.8384 16.3017 11.5205 16.5361 11.286C16.7705 11.0516 17.0885 10.9199 17.42 10.9199C17.7515 10.9199 18.0695 11.0516 18.3039 11.286C18.5383 11.5205 18.67 11.8384 18.67 12.1699V22.8299C18.67 23.1614 18.5383 23.4794 18.3039 23.7138C18.0695 23.9482 17.7515 24.0799 17.42 24.0799Z" fill="#DDDDDD"/>
<path d="M12.16 34.7502C11.2737 34.7847 10.3895 34.64 9.56041 34.3246C8.73135 34.0093 7.97448 33.5298 7.33517 32.9149C6.69585 32.3 6.18725 31.5624 5.83984 30.7463C5.49243 29.9301 5.31335 29.0522 5.31335 28.1652C5.31335 27.2782 5.49243 26.4003 5.83984 25.5841C6.18725 24.768 6.69585 24.0304 7.33517 23.4155C7.97448 22.8006 8.73135 22.3211 9.56041 22.0058C10.3895 21.6904 11.2737 21.5456 12.16 21.5802C12.4915 21.5802 12.8095 21.7119 13.0439 21.9463C13.2783 22.1807 13.41 22.4987 13.41 22.8302C13.41 23.1617 13.2783 23.4797 13.0439 23.7141C12.8095 23.9485 12.4915 24.0802 12.16 24.0802C11.3507 24.0782 10.5589 24.3164 9.88502 24.7646C9.2111 25.2128 8.68532 25.8509 8.37423 26.5981C8.06313 27.3453 7.98071 28.1679 8.13739 28.962C8.29407 29.756 8.68281 30.4857 9.25441 31.0587C9.82601 31.6317 10.5548 32.0222 11.3484 32.1809C12.1421 32.3395 12.9649 32.2591 13.7129 31.9498C14.4608 31.6405 15.1002 31.1163 15.55 30.4435C15.9999 29.7707 16.24 28.9795 16.24 28.1702V22.8302C16.24 22.4987 16.3717 22.1807 16.6061 21.9463C16.8406 21.7119 17.1585 21.5802 17.49 21.5802C17.8215 21.5802 18.1395 21.7119 18.3739 21.9463C18.6083 22.1807 18.74 22.4987 18.74 22.8302V28.1702C18.7374 29.9145 18.0433 31.5866 16.8099 32.82C15.5764 34.0535 13.9043 34.7476 12.16 34.7502Z" fill="#DDDDDD"/>
<path d="M22.83 24.2502C21.5108 24.2502 20.2212 23.859 19.1243 23.1261C18.0274 22.3932 17.1725 21.3514 16.6677 20.1327C16.1629 18.9139 16.0308 17.5728 16.2881 16.2789C16.5455 14.9851 17.1808 13.7966 18.1136 12.8638C19.0464 11.9309 20.2349 11.2957 21.5287 11.0383C22.8226 10.781 24.1637 10.913 25.3825 11.4179C26.6013 11.9227 27.643 12.7776 28.3759 13.8745C29.1088 14.9714 29.5 16.261 29.5 17.5802C29.5 18.4561 29.3275 19.3234 28.9923 20.1327C28.6571 20.9419 28.1657 21.6772 27.5464 22.2966C26.927 22.9159 26.1917 23.4072 25.3825 23.7424C24.5732 24.0776 23.7059 24.2502 22.83 24.2502ZM22.83 13.4202C22.0048 13.4202 21.1982 13.665 20.5122 14.1236C19.8262 14.5823 19.2918 15.2341 18.9765 15.9967C18.6611 16.7592 18.5791 17.5982 18.7408 18.4074C18.9026 19.2165 19.3007 19.9595 19.8849 20.5423C20.4691 21.1251 21.213 21.5215 22.0226 21.6812C22.8322 21.841 23.6709 21.757 24.4327 21.4399C25.1945 21.1227 25.8451 20.5867 26.3021 19.8996C26.7591 19.2125 27.002 18.4053 27 17.5802C26.9973 16.4759 26.5568 15.4179 25.7751 14.638C24.9933 13.8581 23.9342 13.4202 22.83 13.4202Z" fill="#DDDDDD"/>
<path d="M17.42 13.42C17.2558 13.4187 17.0935 13.3851 16.9424 13.321C16.7912 13.257 16.6542 13.1638 16.539 13.0468C16.4239 12.9298 16.3329 12.7913 16.2713 12.6391C16.2097 12.487 16.1787 12.3242 16.18 12.16L16.26 1.49C16.2626 1.16194 16.3941 0.848058 16.626 0.616077C16.858 0.384096 17.1719 0.252614 17.5 0.25C17.6641 0.251308 17.8264 0.284937 17.9776 0.348967C18.1287 0.412997 18.2658 0.506173 18.3809 0.623176C18.4961 0.740179 18.5871 0.878717 18.6487 1.03088C18.7103 1.18304 18.7413 1.34585 18.74 1.51L18.66 12.18C18.6548 12.5073 18.5225 12.8197 18.2911 13.0511C18.0596 13.2825 17.7472 13.4148 17.42 13.42Z" fill="#DDDDDD"/>
</svg>
