<svg width="25" height="25" viewBox="0 0 25 25" fill="none" xmlns="http://www.w3.org/2000/svg">
<path d="M12.5 1.0416C9.4932 1.01105 6.59727 2.17557 4.44868 4.27923C2.3001 6.3829 1.07465 9.25357 1.04167 12.2604C1.05326 14.6366 1.81765 16.948 3.22507 18.8626C4.63249 20.7772 6.6105 22.1965 8.87501 22.9166C9.44792 23.0208 9.65625 22.677 9.65625 22.3749C9.65625 22.0729 9.65625 21.4062 9.65625 20.4687C6.46876 21.1458 5.79167 18.9687 5.79167 18.9687C5.57948 18.2852 5.12837 17.701 4.52084 17.3229C3.47917 16.6354 4.60417 16.6458 4.60417 16.6458C4.96423 16.6939 5.30871 16.8229 5.61179 17.0232C5.91486 17.2234 6.16867 17.4897 6.35417 17.802C6.67743 18.3626 7.20785 18.7738 7.83127 18.9472C8.45468 19.1206 9.12125 19.0422 9.6875 18.7291C9.74574 18.1587 10.0041 17.6273 10.4167 17.2291C7.875 16.9479 5.20834 15.9895 5.20834 11.6874C5.18561 10.5652 5.60026 9.47818 6.36459 8.65619C6.01649 7.69272 6.05759 6.63151 6.47917 5.69785C6.47917 5.69785 7.44792 5.39577 9.60417 6.84369C11.4811 6.34352 13.4564 6.34352 15.3333 6.84369C17.5208 5.39577 18.4583 5.69785 18.4583 5.69785C18.8799 6.63151 18.921 7.69272 18.5729 8.65619C19.355 9.46311 19.7921 10.5429 19.7917 11.6666C19.7917 15.9791 17.1042 16.927 14.5833 17.2083C14.8594 17.4763 15.0726 17.8021 15.2077 18.1623C15.3427 18.5225 15.3963 18.9082 15.3646 19.2916V22.3645C15.3646 22.3645 15.5729 23.0208 16.1458 22.9062C18.4039 22.1816 20.3753 20.762 21.7783 18.8501C23.1814 16.9382 23.9444 14.6318 23.9583 12.2604C23.9254 9.25357 22.6999 6.3829 20.5513 4.27923C18.4027 2.17557 15.5068 1.01105 12.5 1.0416Z" fill="white"/>
</svg>
