<svg width="42" height="42" viewBox="0 0 42 42" fill="none" xmlns="http://www.w3.org/2000/svg">
<g clip-path="url(#clip0_69_270)">
<path d="M20.5598 41.0645C31.8944 41.0544 41.0747 31.8577 41.0646 20.5231C41.0545 9.18845 31.8578 0.00814959 20.5231 0.0182794C9.18853 0.0284092 0.00821184 9.22513 0.0183417 20.5597C0.0284715 31.8944 9.22522 41.0747 20.5598 41.0645Z" fill="#E0E0E0"/>
<path d="M20.5593 40.4408C31.7216 40.4308 40.7624 31.3738 40.7524 20.2115C40.7424 9.04912 31.6855 0.00833815 20.5231 0.018314C9.36078 0.0282899 0.319977 9.08525 0.329953 20.2476C0.339928 31.4099 9.39691 40.4507 20.5593 40.4408Z" fill="white"/>
<mask id="mask0_69_270" style="mask-type:luminance" maskUnits="userSpaceOnUse" x="7" y="6" width="27" height="29">
<path d="M33.639 17.8473L20.851 17.8588L20.8557 23.1611L28.2166 23.1545C27.5334 26.5237 24.6657 28.46 20.8605 28.4634C16.3691 28.4674 12.7478 24.8526 12.7438 20.3612C12.7398 15.8698 16.3546 12.2486 20.846 12.2445C22.7798 12.2428 24.527 12.9275 25.9004 14.0491L29.8892 10.0531C27.4544 7.93439 24.3342 6.62719 20.841 6.63031C13.2306 6.63711 7.12274 12.7559 7.12954 20.3663C7.13635 27.9767 13.2551 34.0845 20.8655 34.0777C27.7273 34.0715 33.9609 29.0755 33.9531 20.3423C33.9524 19.5313 33.8268 18.6581 33.639 17.8473Z" fill="white"/>
</mask>
<g mask="url(#mask0_69_270)">
<path d="M5.88919 28.4767L5.87469 12.2578L16.4866 20.3578L5.88919 28.4767Z" fill="#FBBC05"/>
</g>
<mask id="mask1_69_270" style="mask-type:luminance" maskUnits="userSpaceOnUse" x="7" y="6" width="27" height="29">
<path d="M33.639 17.8473L20.851 17.8588L20.8557 23.1611L28.2166 23.1545C27.5334 26.5237 24.6657 28.46 20.8605 28.4634C16.3691 28.4674 12.7478 24.8526 12.7438 20.3612C12.7398 15.8698 16.3546 12.2486 20.846 12.2445C22.7798 12.2428 24.527 12.9275 25.9004 14.0491L29.8892 10.0531C27.4544 7.93439 24.3342 6.62719 20.841 6.63031C13.2306 6.63711 7.12274 12.7559 7.12954 20.3663C7.13635 27.9767 13.2551 34.0845 20.8655 34.0777C27.7273 34.0715 33.9609 29.0755 33.9531 20.3423C33.9524 19.5313 33.8268 18.6581 33.639 17.8473Z" fill="white"/>
</mask>
<g mask="url(#mask1_69_270)">
<path d="M5.87469 12.2578L16.4866 20.3578L20.8498 16.5487L35.8189 14.1025L35.8111 5.36924L5.86856 5.396L5.87469 12.2578Z" fill="#EA4335"/>
</g>
<mask id="mask2_69_270" style="mask-type:luminance" maskUnits="userSpaceOnUse" x="7" y="6" width="27" height="29">
<path d="M33.639 17.8473L20.851 17.8588L20.8557 23.1611L28.2166 23.1545C27.5334 26.5237 24.6657 28.46 20.8605 28.4634C16.3691 28.4674 12.7478 24.8526 12.7438 20.3612C12.7398 15.8698 16.3546 12.2486 20.846 12.2445C22.7798 12.2428 24.527 12.9275 25.9004 14.0491L29.8892 10.0531C27.4544 7.93439 24.3342 6.62719 20.841 6.63031C13.2306 6.63711 7.12274 12.7559 7.12954 20.3663C7.13635 27.9767 13.2551 34.0845 20.8655 34.0777C27.7273 34.0715 33.9609 29.0755 33.9531 20.3423C33.9524 19.5313 33.8268 18.6581 33.639 17.8473Z" fill="white"/>
</mask>
<g mask="url(#mask2_69_270)">
<path d="M5.88919 28.4767L24.5905 14.1125L29.5191 14.7319L35.8111 5.36924L35.8379 35.3118L5.89532 35.3386L5.88919 28.4767Z" fill="#34A853"/>
</g>
<mask id="mask3_69_270" style="mask-type:luminance" maskUnits="userSpaceOnUse" x="7" y="6" width="27" height="29">
<path d="M33.639 17.8473L20.851 17.8588L20.8557 23.1611L28.2166 23.1545C27.5334 26.5237 24.6657 28.46 20.8605 28.4634C16.3691 28.4674 12.7478 24.8526 12.7438 20.3612C12.7398 15.8698 16.3546 12.2486 20.846 12.2445C22.7798 12.2428 24.527 12.9275 25.9004 14.0491L29.8892 10.0531C27.4544 7.93439 24.3342 6.62719 20.841 6.63031C13.2306 6.63711 7.12274 12.7559 7.12954 20.3663C7.13635 27.9767 13.2551 34.0845 20.8655 34.0777C27.7273 34.0715 33.9609 29.0755 33.9531 20.3423C33.9524 19.5313 33.8268 18.6581 33.639 17.8473Z" fill="white"/>
</mask>
<g mask="url(#mask3_69_270)">
<path d="M35.8379 35.3119L16.4866 20.3579L13.9897 18.4888L35.8172 12.2312L35.8379 35.3119Z" fill="#4285F4"/>
</g>
</g>
<defs>
<clipPath id="clip0_69_270">
<rect width="40.9839" height="41.0463" fill="white" transform="translate(0 0.0366211) rotate(-0.0512056)"/>
</clipPath>
</defs>
</svg>
