<svg width="104" height="99" viewBox="0 0 104 99" fill="none" xmlns="http://www.w3.org/2000/svg">
<path fill-rule="evenodd" clip-rule="evenodd" d="M51.0265 0.343006C49.4187 -0.149863 47.6328 -0.110227 46.0615 0.453197C44.4902 1.01662 43.2622 2.05769 42.6475 3.34744L0.460717 91.8662C0.142501 92.5071 -0.0137808 93.1924 0.000952736 93.8822C0.0156863 94.572 0.201141 95.2526 0.546542 95.8844C0.891943 96.5162 1.3904 97.0867 2.01296 97.5626C2.63552 98.0386 3.36976 98.4105 4.17302 98.6568C4.97629 98.9031 5.83256 99.0189 6.69208 98.9975C7.55161 98.976 8.39725 98.8177 9.17988 98.5318C9.96251 98.2459 10.6665 97.8381 11.251 97.3321C11.8355 96.826 12.2888 96.2318 12.5846 95.584L54.7714 7.06522C55.3857 5.77538 55.3363 4.34259 54.634 3.08196C53.9317 1.82134 52.6341 0.836127 51.0265 0.343006ZM99.4634 41.2699L64.9644 24.2066C64.239 23.8478 63.4327 23.6071 62.5915 23.4983C61.7502 23.3895 60.8904 23.4147 60.0613 23.5724C59.2322 23.7301 58.4499 24.0174 57.7591 24.4177C57.0683 24.818 56.4826 25.3235 56.0354 25.9054C55.5881 26.4873 55.2881 27.1342 55.1525 27.8091C55.0168 28.484 55.0482 29.1738 55.2448 29.839C55.4415 30.5042 55.7995 31.1318 56.2984 31.686C56.7974 32.2402 57.4275 32.7101 58.1528 33.0689L91.0034 49.3173C91.0359 49.4145 91.0359 49.5169 91.0034 49.6141L58.1528 65.8625C57.4083 66.2138 56.7587 66.6808 56.242 67.2361C55.7254 67.7914 55.3521 68.4239 55.144 69.0964C54.936 69.7689 54.8973 70.468 55.0303 71.1527C55.1634 71.8374 55.4654 72.4939 55.9187 73.0837C56.3721 73.6735 56.9676 74.1848 57.6704 74.5876C58.3732 74.9904 59.1692 75.2767 60.0116 75.4295C60.8541 75.5823 61.7261 75.5987 62.5765 75.4777C63.427 75.3567 64.2388 75.1007 64.9644 74.7248L99.4634 57.6615L99.9989 57.2319C102.561 55.17 104 52.3773 104 49.4657C104 46.5542 102.561 43.7614 99.9989 41.6995L99.4634 41.2699Z" fill="white"/>
</svg>
