<svg width="200" height="171" viewBox="0 0 200 171" fill="white" xmlns="http://www.w3.org/2000/svg">
  <path fill-rule="evenodd" clip-rule="evenodd"
    d="M96.2788 108.285L64.6148 91.5989C64.5834 91.4991 64.5834 91.394 64.6148 91.2942L96.2788 74.6086C96.9964 74.2478 97.6226 73.7683 98.1206 73.198C98.6186 72.6278 98.9784 71.9783 99.1789 71.2877C99.3795 70.597 99.4167 69.8791 99.2885 69.176C99.1603 68.4729 98.8692 67.7988 98.4322 67.1931C97.9952 66.5874 97.4212 66.0623 96.7438 65.6487C96.0664 65.235 95.2992 64.9411 94.4871 64.7842C93.6751 64.6272 92.8346 64.6104 92.0149 64.7346C91.1951 64.8589 90.4126 65.1218 89.7133 65.5078L56.4602 83.0302L55.9441 83.4714C53.4744 85.5887 52.0875 88.4567 52.0875 91.4466C52.0875 94.4364 53.4744 97.3044 55.9441 99.4217L56.4602 99.8629L89.7133 117.385C91.1252 118.129 92.8252 118.364 94.4392 118.037C96.0533 117.709 97.4491 116.848 98.3198 115.641C99.1904 114.434 99.4645 112.981 99.0818 111.601C98.699 110.222 97.6908 109.029 96.2788 108.285Z"
    fill="white"/>
</svg>
