<svg width="22" height="22" viewBox="0 0 22 22" fill="none" xmlns="http://www.w3.org/2000/svg">
<path d="M20.3705 0H1.62403C0.727528 0 0 0.710417 0 1.58522V20.4126C0 21.2887 0.727528 22 1.62403 22H20.3705C21.2676 22 22 21.2887 22 20.4126V1.58522C22 0.710417 21.2676 0 20.3705 0ZM6.52483 18.7471H3.26028V8.24847H6.52483V18.7471ZM4.89256 6.81297C3.84664 6.81297 3.00117 5.96536 3.00117 4.92036C3.00117 3.87689 3.84664 3.02928 4.89256 3.02928C5.93603 3.02928 6.78364 3.87689 6.78364 4.92036C6.78364 5.96536 5.93603 6.81297 4.89256 6.81297ZM18.7458 18.7471H15.4865V13.6418C15.4865 12.4239 15.4626 10.8579 13.7903 10.8579C12.0921 10.8579 11.8333 12.1843 11.8333 13.5535V18.7474H8.57144V8.24847H11.7019V9.68214H11.7465C12.1822 8.85714 13.2467 7.98661 14.8344 7.98661C18.1362 7.98661 18.7461 10.1603 18.7461 12.9882L18.7458 18.7471Z" fill="white"/>
</svg>
