<svg width="57" height="28" viewBox="0 0 57 28" fill="none" xmlns="http://www.w3.org/2000/svg">
<path d="M0.48 28V-1.90735e-06H8.12L13.6 14.76C14.56 17.52 15.28 19.96 15.52 21.64C15.8 19.96 16.52 17.52 17.48 14.76L22.92 -1.90735e-06H30.64V28H25.64V15.08C25.64 9.84 25.92 6.64 26.12 5.28L20.52 20.84C19.52 23.64 18.68 26.24 18.4 28H12.68C12.36 26.24 11.6 23.64 10.56 20.84L4.96 5.28C5.16 6.64 5.44 9.84 5.44 15.08V28H0.48ZM33.5659 28V-1.90735e-06H46.1259C51.8859 -1.90735e-06 55.2459 2.72 55.2459 6.84C55.2459 11.56 50.9259 13.64 46.6459 13.92C51.8059 14.44 56.4459 16.2 56.4459 21.12C56.4459 25.52 52.4459 28 46.6059 28H33.5659ZM39.1659 23H45.1659C48.3259 23 50.1659 21.64 50.1659 19.56C50.1659 16.92 47.5659 16.04 44.8459 15.2C42.5659 14.52 40.1659 13.76 39.1659 11.4V23ZM39.1659 6.72C39.1659 10.88 41.9659 12.24 45.0059 12.24C47.6859 12.24 49.4459 10.8 49.4459 8.6C49.4459 6.36 47.7259 5 44.9659 5H39.1659V6.72Z" fill="white"/>
</svg>
