<svg width="18" height="20" viewBox="0 0 18 20" fill="none" xmlns="http://www.w3.org/2000/svg">
<path d="M16.0039 10.376C15.8866 10.242 15.7629 10.1077 15.6329 9.973C15.7236 9.877 15.8116 9.78133 15.8969 9.686C17.5019 7.882 18.1799 6.072 17.5519 4.985C16.9499 3.942 15.1589 3.631 12.9159 4.067C12.6953 4.11033 12.4756 4.159 12.2569 4.213C12.2149 4.069 12.1706 3.92567 12.1239 3.783C11.3629 1.49 10.1339 -0.000999497 8.87793 5.02707e-07C7.67393 5.02707e-07 6.50993 1.397 5.76693 3.558C5.69359 3.77133 5.62593 3.986 5.56393 4.202C5.41793 4.166 5.27126 4.13267 5.12393 4.102C2.75793 3.617 0.852925 3.937 0.225925 5.026C-0.375075 6.069 0.252925 7.776 1.75393 9.498C1.90326 9.668 2.05659 9.83467 2.21393 9.998C2.02793 10.188 1.85293 10.379 1.68893 10.569C0.223926 12.267 -0.368075 13.945 0.231925 14.984C0.851925 16.058 2.72993 16.409 5.01693 15.959C5.20226 15.9223 5.38659 15.881 5.56993 15.835C5.63659 16.069 5.71026 16.3013 5.79093 16.532C6.53093 18.649 7.68793 20 8.88793 20C10.1279 20 11.3699 18.547 12.1229 16.341C12.1829 16.167 12.2379 15.986 12.2919 15.8C12.5286 15.8587 12.7669 15.9107 13.0069 15.956C15.2099 16.373 16.9589 16.046 17.5579 15.006C18.1769 13.931 17.5379 12.129 16.0039 10.376ZM0.965926 5.452C1.35193 4.782 2.90893 4.52 4.95193 4.94C5.08259 4.96667 5.21559 4.99667 5.35093 5.03C5.15122 5.91236 5.01024 6.80699 4.92893 7.708C4.19218 8.22607 3.48971 8.79125 2.82593 9.4C2.67993 9.24867 2.53759 9.09367 2.39893 8.935C1.11193 7.461 0.603926 6.081 0.965926 5.452ZM4.85293 11.18C4.34293 10.793 3.86793 10.397 3.43693 9.999C3.86693 9.603 4.34193 9.209 4.85193 8.823C4.83326 9.21567 4.82426 9.60867 4.82493 10.002C4.82493 10.3953 4.83426 10.788 4.85293 11.18ZM4.85293 15.12C3.98615 15.313 3.09124 15.3449 2.21293 15.214C1.97214 15.1952 1.73777 15.1272 1.52432 15.0141C1.31087 14.9011 1.12286 14.7456 0.971926 14.557C0.606926 13.927 1.08293 12.579 2.33593 11.127C2.49326 10.945 2.65593 10.7677 2.82393 10.595C3.48801 11.2075 4.19188 11.7754 4.93093 12.295C5.01305 13.2074 5.15537 14.1134 5.35693 15.007C5.19026 15.049 5.02193 15.087 4.85193 15.121L4.85293 15.12ZM11.9529 7.081C11.6176 6.86967 11.2783 6.66533 10.9349 6.468C10.5963 6.27333 10.2539 6.08567 9.90793 5.905C10.5009 5.656 11.0839 5.443 11.6469 5.27C11.7793 5.86814 11.8814 6.47257 11.9529 7.081ZM6.57593 3.835C7.21193 1.985 8.15393 0.855 8.87993 0.855C9.65293 0.854 10.6569 2.073 11.3139 4.052C11.3566 4.18133 11.3966 4.31133 11.4339 4.442C10.5715 4.70929 9.72762 5.03333 8.90793 5.412C8.09095 5.02869 7.24903 4.70095 6.38793 4.431C6.44593 4.231 6.50859 4.03233 6.57593 3.835ZM6.17593 5.259C6.76302 5.44378 7.34042 5.65806 7.90593 5.901C7.20459 6.26233 6.52193 6.656 5.85793 7.082C5.93793 6.444 6.04493 5.833 6.17593 5.259ZM5.85893 12.919C6.19026 13.1317 6.52659 13.336 6.86793 13.532C7.21593 13.732 7.56826 13.924 7.92493 14.108C7.35535 14.3594 6.77325 14.5813 6.18093 14.773C6.0433 14.161 5.93584 13.5426 5.85893 12.92V12.919ZM11.3149 16.065C11.0489 16.912 10.6292 17.7029 10.0769 18.398C9.94056 18.5973 9.76478 18.7665 9.56045 18.8951C9.35611 19.0238 9.12756 19.1092 8.88893 19.146C8.15993 19.146 7.23093 18.061 6.59893 16.25C6.52426 16.036 6.45559 15.82 6.39293 15.602C7.25812 15.3229 8.10339 14.9855 8.92293 14.592C9.74958 14.9737 10.6004 15.3008 11.4699 15.571C11.4219 15.737 11.3703 15.9017 11.3149 16.065ZM11.6769 14.741C11.1079 14.565 10.5169 14.348 9.91493 14.095C10.2543 13.917 10.5959 13.7287 10.9399 13.53C11.2933 13.326 11.6373 13.117 11.9719 12.903C11.9051 13.5203 11.8066 14.1338 11.6769 14.741ZM12.1239 9.998C12.1239 10.6053 12.1049 11.212 12.0669 11.818C11.5739 12.152 11.0539 12.478 10.5129 12.79C9.97293 13.101 9.43993 13.387 8.91593 13.646C8.36459 13.382 7.82393 13.0973 7.29393 12.792C6.76726 12.4887 6.25259 12.1657 5.74993 11.823C5.70326 11.2163 5.67993 10.609 5.67993 10.001C5.67993 9.39367 5.70259 8.78667 5.74793 8.18C6.75318 7.49368 7.80885 6.88428 8.90593 6.357C9.44993 6.62167 9.98426 6.90533 10.5089 7.208C11.0356 7.51067 11.5523 7.83033 12.0589 8.167C12.1023 8.77633 12.1239 9.38667 12.1239 9.998ZM13.0799 4.905C15.0019 4.532 16.4499 4.783 16.8129 5.412C17.1999 6.082 16.6459 7.56 15.2589 9.118C15.1823 9.204 15.1029 9.29033 15.0209 9.377C14.3454 8.76632 13.6291 8.20235 12.8769 7.689C12.8012 6.79795 12.6659 5.91298 12.4719 5.04C12.6786 4.98933 12.8813 4.94433 13.0799 4.905ZM12.9499 8.79C13.4575 9.16045 13.9455 9.55698 14.4119 9.978C13.9476 10.4058 13.4613 10.809 12.9549 11.186C12.9703 10.79 12.9779 10.394 12.9779 9.998C12.9779 9.59533 12.9686 9.19267 12.9499 8.79ZM16.8189 14.579C16.4549 15.21 15.0509 15.473 13.1659 15.117C12.9499 15.0763 12.7286 15.0277 12.5019 14.971C12.6912 14.0867 12.8205 13.1907 12.8889 12.289C13.6397 11.767 14.3538 11.194 15.0259 10.574C15.1439 10.696 15.2559 10.8173 15.3619 10.938C15.963 11.5916 16.4386 12.3502 16.7649 13.176C16.8694 13.3937 16.9281 13.6306 16.9373 13.8719C16.9466 14.1132 16.9063 14.3539 16.8189 14.579ZM7.99993 8.438C7.69404 8.61463 7.4474 8.87799 7.29118 9.19478C7.13496 9.51158 7.07619 9.86758 7.12229 10.2178C7.16839 10.568 7.3173 10.8966 7.55018 11.1622C7.78306 11.4278 8.08945 11.6183 8.43063 11.7098C8.7718 11.8012 9.13243 11.7895 9.46692 11.676C9.8014 11.5625 10.0947 11.3523 10.3098 11.0721C10.5249 10.7919 10.652 10.4543 10.6752 10.1018C10.6983 9.74934 10.6165 9.39793 10.4399 9.092C10.3227 8.88882 10.1666 8.71073 9.98047 8.5679C9.79438 8.42507 9.58198 8.3203 9.3554 8.25956C9.12882 8.19883 8.89249 8.18333 8.65991 8.21395C8.42734 8.24456 8.20307 8.3207 7.99993 8.438Z" fill="#DDDDDD"/>
</svg>
