<svg width="109" height="28" viewBox="0 0 109 28" fill="none" xmlns="http://www.w3.org/2000/svg">
<rect x="4" y="6" width="105" height="22" rx="5" fill="#E0FFF5"/>
<path d="M0 5C0 2.23858 2.23858 0 5 0H99C101.761 0 104 2.23858 104 5V19C104 21.7614 101.761 24 99 24H52H5C2.23858 24 0 21.7614 0 19V5Z" fill="#6C9B8A"/>
<path d="M14.86 16.09C14.65 16.09 14.475 16.02 14.335 15.88C14.195 15.74 14.125 15.565 14.125 15.355V6.76C14.125 6.49 14.15 6.295 14.2 6.175C14.26 6.055 14.37 5.975 14.53 5.935C14.7 5.885 14.965 5.86 15.325 5.86H15.94C17.62 5.86 18.915 6.14 19.825 6.7C20.735 7.26 21.19 8.045 21.19 9.055C21.19 10.335 20.45 11.305 18.97 11.965C20.03 12.805 20.86 13.82 21.46 15.01C21.51 15.11 21.535 15.225 21.535 15.355C21.535 15.555 21.465 15.73 21.325 15.88C21.195 16.02 21.02 16.09 20.8 16.09C20.52 16.09 20.3 15.96 20.14 15.7C18.82 13.6 17.64 12.55 16.6 12.55C16.29 12.55 15.955 12.58 15.595 12.64V15.355C15.595 15.565 15.52 15.74 15.37 15.88C15.23 16.02 15.06 16.09 14.86 16.09ZM15.595 11.26C16.675 11.19 17.63 10.97 18.46 10.6C19.29 10.23 19.705 9.715 19.705 9.055C19.705 8.485 19.37 8.05 18.7 7.75C18.04 7.45 17.105 7.3 15.895 7.3H15.595V11.26ZM26.0351 16.09C25.3251 16.09 24.6851 15.94 24.1151 15.64C23.5551 15.33 23.1151 14.895 22.7951 14.335C22.4751 13.765 22.3151 13.095 22.3151 12.325C22.3151 11.695 22.4551 11.095 22.7351 10.525C23.0251 9.945 23.4251 9.48 23.9351 9.13C24.4551 8.78 25.0451 8.605 25.7051 8.605C26.3151 8.605 26.8351 8.73 27.2651 8.98C27.7051 9.22 28.0351 9.51 28.2551 9.85C28.4751 10.19 28.5851 10.495 28.5851 10.765C28.5851 10.895 28.5451 11.02 28.4651 11.14C28.3851 11.26 28.2701 11.365 28.1201 11.455L24.1001 13.765C24.2401 14.075 24.4851 14.315 24.8351 14.485C25.1951 14.655 25.5951 14.74 26.0351 14.74C26.6151 14.74 27.1101 14.525 27.5201 14.095C27.6801 13.935 27.8451 13.855 28.0151 13.855C28.2151 13.855 28.3801 13.92 28.5101 14.05C28.6501 14.18 28.7201 14.34 28.7201 14.53C28.7201 14.69 28.6601 14.84 28.5401 14.98C28.2601 15.29 27.8851 15.555 27.4151 15.775C26.9551 15.985 26.4951 16.09 26.0351 16.09ZM27.1001 10.585C26.9801 10.375 26.8101 10.22 26.5901 10.12C26.3701 10.01 26.1101 9.955 25.8101 9.955C25.2401 9.955 24.7601 10.15 24.3701 10.54C23.9901 10.93 23.7701 11.41 23.7101 11.98C23.6901 12.13 23.6801 12.31 23.6801 12.52L27.1001 10.585ZM32.3233 16.09C31.7433 16.09 31.2383 15.965 30.8083 15.715C30.3883 15.455 30.0633 15.16 29.8333 14.83C29.6133 14.49 29.5033 14.215 29.5033 14.005C29.5033 13.805 29.5733 13.64 29.7133 13.51C29.8533 13.37 30.0183 13.3 30.2083 13.3C30.3783 13.3 30.5183 13.345 30.6283 13.435C30.7483 13.525 30.8333 13.645 30.8833 13.795C30.9933 14.105 31.1733 14.35 31.4233 14.53C31.6733 14.71 31.9833 14.8 32.3533 14.8C32.7433 14.8 33.0483 14.705 33.2683 14.515C33.4883 14.325 33.5983 14.11 33.5983 13.87C33.5983 13.64 33.5033 13.46 33.3133 13.33C33.1333 13.19 32.7633 13.035 32.2033 12.865C31.3833 12.615 30.7933 12.32 30.4333 11.98C30.0733 11.63 29.8933 11.175 29.8933 10.615C29.8933 10.025 30.1283 9.545 30.5983 9.175C31.0683 8.795 31.7233 8.605 32.5633 8.605C33.3433 8.605 33.9483 8.775 34.3783 9.115C34.8183 9.455 35.0383 9.91 35.0383 10.48C35.0383 10.79 34.9733 11.03 34.8433 11.2C34.7133 11.36 34.5283 11.44 34.2883 11.44C34.0783 11.44 33.9083 11.375 33.7783 11.245C33.6483 11.115 33.5833 10.975 33.5833 10.825C33.5833 10.775 33.5933 10.715 33.6133 10.645C33.6433 10.565 33.6583 10.505 33.6583 10.465C33.6583 10.285 33.5683 10.14 33.3883 10.03C33.2183 9.92 32.9533 9.865 32.5933 9.865C32.1433 9.865 31.8083 9.93 31.5883 10.06C31.3783 10.19 31.2733 10.365 31.2733 10.585C31.2733 10.815 31.3833 11.005 31.6033 11.155C31.8233 11.295 32.2183 11.455 32.7883 11.635C33.6183 11.895 34.1933 12.18 34.5133 12.49C34.8433 12.8 35.0083 13.235 35.0083 13.795C35.0083 14.175 34.8933 14.545 34.6633 14.905C34.4433 15.255 34.1283 15.54 33.7183 15.76C33.3183 15.98 32.8533 16.09 32.3233 16.09ZM38.5904 16.135C38.0504 16.135 37.6204 16.02 37.3004 15.79C36.9804 15.55 36.7404 15.12 36.5804 14.5C36.4204 13.88 36.3404 12.99 36.3404 11.83C36.3404 11.44 36.3554 11.01 36.3854 10.54C36.4154 10.07 36.4554 9.675 36.5054 9.355C36.5454 9.105 36.6204 8.915 36.7304 8.785C36.8404 8.655 37.0004 8.59 37.2104 8.59C37.4104 8.59 37.5804 8.65 37.7204 8.77C37.8604 8.89 37.9304 9.065 37.9304 9.295L37.9004 9.715C37.8004 10.565 37.7504 11.38 37.7504 12.16C37.7504 13.18 37.8354 13.875 38.0054 14.245C38.1854 14.605 38.4304 14.785 38.7404 14.785C39.1004 14.785 39.4704 14.69 39.8504 14.5C40.2304 14.3 40.5004 14.11 40.6604 13.93C40.7204 13.87 40.7504 13.745 40.7504 13.555L40.7804 9.28C40.7804 9.08 40.8504 8.915 40.9904 8.785C41.1404 8.655 41.3054 8.59 41.4854 8.59C41.6754 8.59 41.8404 8.655 41.9804 8.785C42.1304 8.915 42.2054 9.08 42.2054 9.28V15.37C42.2054 15.56 42.1304 15.73 41.9804 15.88C41.8404 16.02 41.6754 16.09 41.4854 16.09C41.2854 16.09 41.1054 16.03 40.9454 15.91C40.7954 15.78 40.7204 15.62 40.7204 15.43V15.265C40.3404 15.535 39.9854 15.75 39.6554 15.91C39.3354 16.06 38.9804 16.135 38.5904 16.135ZM45.019 16.09C44.829 16.09 44.659 16.02 44.509 15.88C44.369 15.74 44.299 15.575 44.299 15.385V9.325C44.299 9.135 44.369 8.97 44.509 8.83C44.659 8.68 44.829 8.605 45.019 8.605C45.219 8.605 45.389 8.68 45.529 8.83C45.669 8.97 45.739 9.135 45.739 9.325V10.375C46.359 9.195 47.184 8.605 48.214 8.605C48.624 8.605 48.979 8.725 49.279 8.965C49.589 9.205 49.809 9.565 49.939 10.045C50.579 9.085 51.359 8.605 52.279 8.605C52.899 8.605 53.389 8.845 53.749 9.325C54.109 9.795 54.289 10.505 54.289 11.455V15.385C54.289 15.575 54.214 15.74 54.064 15.88C53.924 16.02 53.759 16.09 53.569 16.09C53.369 16.09 53.199 16.02 53.059 15.88C52.919 15.74 52.849 15.575 52.849 15.385V11.365C52.849 10.905 52.784 10.56 52.654 10.33C52.524 10.1 52.319 9.985 52.039 9.985C51.749 9.985 51.459 10.1 51.169 10.33C50.879 10.56 50.639 10.875 50.449 11.275C50.269 11.675 50.179 12.115 50.179 12.595V15.385C50.179 15.585 50.109 15.755 49.969 15.895C49.829 16.025 49.659 16.09 49.459 16.09C49.269 16.09 49.099 16.02 48.949 15.88C48.809 15.74 48.739 15.575 48.739 15.385V11.365C48.739 10.885 48.679 10.535 48.559 10.315C48.449 10.095 48.264 9.985 48.004 9.985C47.684 9.985 47.369 10.115 47.059 10.375C46.749 10.625 46.479 10.93 46.249 11.29C46.069 11.59 45.934 11.89 45.844 12.19C45.764 12.49 45.724 12.82 45.724 13.18L45.739 15.385C45.739 15.575 45.669 15.74 45.529 15.88C45.389 16.02 45.219 16.09 45.019 16.09ZM59.4775 16.09C58.7675 16.09 58.1275 15.94 57.5575 15.64C56.9975 15.33 56.5575 14.895 56.2375 14.335C55.9175 13.765 55.7575 13.095 55.7575 12.325C55.7575 11.695 55.8975 11.095 56.1775 10.525C56.4675 9.945 56.8675 9.48 57.3775 9.13C57.8975 8.78 58.4875 8.605 59.1475 8.605C59.7575 8.605 60.2775 8.73 60.7075 8.98C61.1475 9.22 61.4775 9.51 61.6975 9.85C61.9175 10.19 62.0275 10.495 62.0275 10.765C62.0275 10.895 61.9875 11.02 61.9075 11.14C61.8275 11.26 61.7125 11.365 61.5625 11.455L57.5425 13.765C57.6825 14.075 57.9275 14.315 58.2775 14.485C58.6375 14.655 59.0375 14.74 59.4775 14.74C60.0575 14.74 60.5525 14.525 60.9625 14.095C61.1225 13.935 61.2875 13.855 61.4575 13.855C61.6575 13.855 61.8225 13.92 61.9525 14.05C62.0925 14.18 62.1625 14.34 62.1625 14.53C62.1625 14.69 62.1025 14.84 61.9825 14.98C61.7025 15.29 61.3275 15.555 60.8575 15.775C60.3975 15.985 59.9375 16.09 59.4775 16.09ZM60.5425 10.585C60.4225 10.375 60.2525 10.22 60.0325 10.12C59.8125 10.01 59.5525 9.955 59.2525 9.955C58.6825 9.955 58.2025 10.15 57.8125 10.54C57.4325 10.93 57.2125 11.41 57.1525 11.98C57.1325 12.13 57.1225 12.31 57.1225 12.52L60.5425 10.585Z" fill="#FFE8F6"/>
<path d="M93.7489 11.0035L89.3343 6.24892C89.2618 6.17005 89.1756 6.10744 89.0805 6.06472C88.9855 6.022 88.8835 6 88.7806 6C88.6776 6 88.5757 6.022 88.4806 6.06472C88.3856 6.10744 88.2993 6.17005 88.2268 6.24892C88.0815 6.40659 88 6.61987 88 6.84219C88 7.06451 88.0815 7.27779 88.2268 7.43546L92.0876 11.6431L88.2268 15.8086C88.0815 15.9663 88 16.1795 88 16.4019C88 16.6242 88.0815 16.8375 88.2268 16.9951C88.299 17.0746 88.3852 17.1379 88.4802 17.1812C88.5753 17.2246 88.6774 17.2471 88.7806 17.2476C88.8838 17.2471 88.9859 17.2246 89.0809 17.1812C89.176 17.1379 89.2621 17.0746 89.3343 16.9951L93.7489 12.2405C93.8281 12.1617 93.8913 12.0661 93.9345 11.9597C93.9777 11.8532 94 11.7382 94 11.622C94 11.5058 93.9777 11.3909 93.9345 11.2844C93.8913 11.178 93.8281 11.0823 93.7489 11.0035Z" fill="white"/>
</svg>
