<svg width="76" height="76" viewBox="0 0 76 76" fill="none" xmlns="http://www.w3.org/2000/svg">
<path d="M50.844 42.4082C50.92 40.5842 50.236 38.8362 49.02 37.6202C48.64 37.2402 48.26 36.9362 47.804 36.6322C44.004 34.3522 41.268 32.3002 38.988 30.0962L33.44 24.5482C31.844 22.9522 30.476 21.2802 29.184 19.6082C29.108 19.5322 29.032 19.4562 28.956 19.3042C27.664 17.5562 26.524 15.8082 25.46 14.2122C25.08 13.6042 24.548 13.0722 24.016 12.6162C22.876 11.7802 21.584 11.3242 20.216 11.3242C18.848 11.3242 17.404 11.7802 16.264 12.6922C14.82 13.8322 13.984 15.5042 13.908 17.2522C13.832 19.0762 14.516 20.8242 15.732 22.0402C16.112 22.4202 16.492 22.7242 16.948 23.0282C17.252 23.1802 17.48 23.3322 17.784 23.4842C17.86 23.5602 18.012 23.5602 18.088 23.6362C21.356 25.6122 23.712 27.5122 25.764 29.5642L31.312 35.1122C34.504 38.3042 37.164 42.1042 39.292 45.3722C39.672 45.9802 40.204 46.5122 40.736 46.9682C43.016 48.7162 46.284 48.6402 48.488 46.8922C49.856 45.9042 50.768 44.2322 50.844 42.4082ZM23.104 20.8242C22.344 21.5842 21.28 22.0402 20.14 22.0402C19 22.0402 17.936 21.5842 17.176 20.8242C16.416 20.0642 15.96 19.0002 15.96 17.8602C15.96 16.7202 16.416 15.6562 17.176 14.8962C17.936 14.1362 19 13.6802 20.14 13.6802C21.28 13.6802 22.268 14.1362 23.104 14.8962C23.94 15.6562 24.32 16.7202 24.32 17.8602C24.32 19.0002 23.864 20.0642 23.104 20.8242ZM44.46 46.3602C43.32 46.3602 42.256 45.9042 41.496 45.1442C40.736 44.3842 40.28 43.3202 40.28 42.1802C40.28 41.0402 40.736 39.9762 41.496 39.2162C42.256 38.4562 43.32 38.0002 44.46 38.0002C45.6 38.0002 46.588 38.4562 47.424 39.2162C48.26 39.9762 48.64 41.0402 48.64 42.1802C48.64 43.3202 48.184 44.3842 47.424 45.1442C46.664 45.9042 45.6 46.3602 44.46 46.3602Z" fill="white"/>
<path d="M44.46 39.5202C43.776 39.5202 43.092 39.8242 42.56 40.2802C42.028 40.7362 41.8 41.4202 41.8 42.1802C41.8 42.9402 42.104 43.5482 42.56 44.0802C43.548 45.0682 45.296 45.0682 46.284 44.0802C46.816 43.5482 47.044 42.9402 47.044 42.1802C47.044 41.4202 46.74 40.8122 46.284 40.2802C45.828 39.7482 45.144 39.5202 44.46 39.5202ZM43.472 52.6682L45.98 49.7042C45.448 49.7802 44.992 49.8562 44.46 49.8562C42.788 49.8562 41.116 49.3242 39.748 48.2602C39.064 47.7282 38.456 47.1202 38 46.3602C37.088 44.9922 36.1 43.4722 34.96 41.9522L19 52.8202V57.7602H43.32V53.2002C43.32 53.0482 43.396 52.8202 43.472 52.6682ZM20.14 15.2002C19.456 15.2002 18.772 15.5042 18.24 15.9602C17.708 16.4162 17.48 17.1002 17.48 17.8602C17.48 18.6202 17.784 19.2282 18.24 19.7602C19.228 20.7482 20.976 20.7482 21.964 19.7602C22.496 19.2282 22.724 18.6202 22.724 17.8602C22.724 17.1002 22.42 16.4922 21.964 15.9602C21.508 15.4282 20.824 15.2002 20.14 15.2002ZM15.2 59.2802V65.3602H47.12V59.2802H18.24H15.2Z" fill="white"/>
<path d="M65.512 6.83991L69.464 8.13191L66.044 4.71191L60.8 7.29591V8.73991L64.98 6.91591C65.132 6.83991 65.284 6.83991 65.512 6.83991ZM64.98 14.3639L60.8 12.5399V13.9839L65.968 16.5679L69.388 13.1479L65.512 14.4399C65.284 14.4399 65.132 14.4399 64.98 14.3639ZM14.972 23.5599C14.82 23.4839 14.744 23.3319 14.592 23.2559C12.996 21.6599 12.16 19.5319 12.312 17.2519C12.464 15.0479 13.528 12.9199 15.276 11.5519C18.012 9.34791 22.116 9.27191 24.928 11.4759C25.612 12.0079 26.296 12.6919 26.752 13.4519C27.664 14.8199 28.652 16.3399 29.716 17.7839C31.768 15.6559 34.58 14.4399 37.544 14.4399H45.6V6.83991H12.92C8.284 6.83991 4.56 10.5639 4.56 15.1999C4.56 19.8359 8.284 23.5599 12.92 23.5599H14.972ZM14.44 66.8799H10.64V71.4399H51.68V66.8799H47.88H14.44ZM51.68 8.35991H56.24V12.9199H51.68V8.35991ZM57.76 7.59991V14.4399H59.28V6.83991H57.76V7.59991ZM47.12 7.59991H50.16V13.6799H47.12V7.59991Z" fill="white"/>
</svg>
